<svg xmlns="http://www.w3.org/2000/svg" id="_acZUtQix_qvVEQhfkNKj" width="1096" height="632" viewBox="2764 2604 1096 632" style="width: 100%; height: 100%; font-family: Inter, arial, sans-serif;"><g id="wrapper" transform="translate(0, 0) scale(1)"><g id="objects"><g transform="translate(3088, 2704)"><mask id="ctr_y8adh5eCdB5rq05BH6r9lzDs3s6n87eP6gl3M4nl9q-text-mask"><rect x="-3" y="-3" width="246" height="150" fill="white"/><rect x="10" y="-3" width="97.69999694824219" height="6" fill="black"/></mask><g><rect x="1" y="1" width="238" height="142" fill="#fdfdfd" stroke="#d3d3d3" stroke-width="2px" stroke-opacity="1" rx="10" ry="10" mask="url(&quot;#ctr_y8adh5eCdB5rq05BH6r9lzDs3s6n87eP6gl3M4nl9q-text-mask&quot;)"/></g><g><rect x="-8" y="-8" width="256" height="16" fill="transparent"/><rect x="-8" y="136" width="256" height="16" fill="transparent"/><rect x="-8" y="-8" width="16" height="160" fill="transparent"/><rect x="232" y="-8" width="16" height="160" fill="transparent"/></g><g><g transform="translate(10, -12.5)"><text x="2" y="16" font-size="14px" fill="#595959">Product Apps</text></g></g></g><g transform="translate(2864, 2864)"><mask id="ctr_CcHk5XP0ER1zxWY5tx7mKCJ--qZnG6nKOUVKqBeCzw-text-mask"><rect x="-3" y="-3" width="470" height="278" fill="white"/><rect x="10" y="-3" width="119.64999389648438" height="6" fill="black"/></mask><g><rect x="1" y="1" width="462" height="270" fill="#fdfdfd" stroke="#d3d3d3" stroke-width="2px" stroke-opacity="1" rx="10" ry="10" mask="url(&quot;#ctr_CcHk5XP0ER1zxWY5tx7mKCJ--qZnG6nKOUVKqBeCzw-text-mask&quot;)"/></g><g><rect x="-8" y="-8" width="480" height="16" fill="transparent"/><rect x="-8" y="264" width="480" height="16" fill="transparent"/><rect x="-8" y="-8" width="16" height="288" fill="transparent"/><rect x="456" y="-8" width="16" height="288" fill="transparent"/></g><g><g transform="translate(10, -12.5)"><text x="2" y="16" font-size="14px" fill="#595959">Foundation Apps</text></g></g></g><g id="icn_VsYoGZKa2qfWkb0w4q2Wr" transform="translate(3008,2896)"><g transform="translate(0,0)"><path d="&#xA;    M 0, 21.248&#xA;    C 0, 3.750272 3.750272, 0 21.248, 0&#xA;    L 42.751999999999995, 0&#xA;    C 60.249728, 0 64, 3.750272 64, 21.248&#xA;    L 64, 42.751999999999995&#xA;    C 64, 60.249728 60.249728, 64 42.751999999999995, 64&#xA;    L 21.248, 64&#xA;    C 3.750272, 64 0, 60.249728 0, 42.751999999999995&#xA;    L 0, 21.248&#xA;  " stroke-width="2" stroke="#e3d5f0" fill="#f5eff9"/></g><rect width="74" height="74" x="-5" y="-5" fill="transparent"/><rect width="54" height="54" x="5" y="5" fill="transparent"/><g><svg viewBox="0 0 50 50" width="40" height="40" x="12" y="12"><svg id="tnwtEVmAEHlsKEc2c3G4U" xmlns="http://www.w3.org/2000/svg" viewBox="11.2 4.76 27.54 41.6" width="50" height="50"><g fill="none" fill-rule="evenodd"><path fill="url(#d87t9t1dmABfzoaoCQklB)" d="M26.117 5.678c-2.906 1.03-5.711 4.036-8.416 9.02-4.057 7.474-9.296 18.095-2.081 26.505 3.338 3.89 8.849 6.187 16.081 2.55 5.81-2.922 7.427-11.306 5.34-15.245-4.302-8.127-8.668-10.131-9.837-15.171-.78-3.36-1.142-5.913-1.087-7.66z" clip-rule="evenodd"/><path fill="url(#s-nXwaqOJEs4rcFuD6c9H)" d="M26.117 5.577c-2.921 1.04-5.726 4.047-8.416 9.02-4.035 7.458-9.297 18.096-2.082 26.505 3.338 3.89 8.779 5.148 11.797 2.84 1.968-1.504 3.307-2.938 4.078-5.959.859-3.364.2-7.893-.252-9.973-.571-2.633-.758-5.522-.56-8.669l-.156-.19c-1.572-1.923-2.785-3.599-3.322-5.915-.78-3.36-1.142-5.913-1.087-7.659z" clip-rule="evenodd"/><path fill="url(#BhwJze-0smTCJJr1NxFOq)" d="M23.698 6.886c-2.72 2.15-4.743 5.756-6.068 10.819-1.987 7.594-2.203 14.597-1.502 18.67 1.36 7.897 8.404 10.894 15.63 7.219 4.447-2.262 6.3-7.117 6.201-12.387-.102-5.457-10.647-11.642-12.514-16.196-1.245-3.036-1.827-5.744-1.746-8.125z" clip-rule="evenodd"/><path fill="url(#IuDtmZI4LDCkc1wpAuNBR)" d="M30.596 21.123c3.262 4.185 3.974 7.097 2.133 8.739-2.76 2.462-9.51 4.068-13.71 1.09-2.8-1.986-3.86-6.245-3.178-12.778a58.666 58.666 0 0 0-2.932 7.335c-.798 2.477-1.031 5.068-.7 7.775 1.002 2.025 3.435 3.377 7.301 4.057 5.8 1.02 11.288.516 14.97-1.34 2.456-1.239 3.617-2.47 3.485-3.697.088-1.811-.47-3.535-1.676-5.172-1.206-1.638-3.103-3.64-5.694-6.009z" clip-rule="evenodd"/><path fill="url(#WZIpzcsuOdcD1R_pBKALw)" d="M17.845 16.945c-.027 3.022.75 5.895 2.332 8.618 2.372 4.086 5.14 8.122 9.284 11.468 2.762 2.231 4.969 2.952 6.62 2.162-1.356 2.429-2.799 3.619-4.328 3.57-2.292-.072-5.088-1.075-9.568-6.458-2.986-3.589-5.03-6.983-6.13-10.184.175-1.27.36-2.535.556-3.795.195-1.26.607-3.053 1.234-5.38z" clip-rule="evenodd"/><path fill="url(#5OKQs0os671VU7pQSJCTd)" d="M24.853 21.092c.253 2.462 1.211 6.4 0 9.022s-6.807 7.358-5.262 11.53c1.544 4.173 5.308 3.237 7.67 1.314 2.36-1.923 3.624-5.05 3.904-7.249.28-2.199-.67-6.43-.979-10.11-.206-2.453-.066-4.557.42-6.31l-.724-.91-4.258-1.262c-.683 1.01-.94 2.334-.771 3.975z" clip-rule="evenodd"/><path fill="url(#6XjiZYtCVnIopU3lNrpMe)" d="M26.373 8.899c-1.378.582-2.684 1.736-3.918 3.462-1.85 2.588-2.792 4.14-2.094 9.27.465 3.421.797 6.568.998 9.441l5.965-17.33c-.22-.882-.402-1.68-.548-2.392a36.64 36.64 0 0 1-.403-2.451z" clip-rule="evenodd"/><path fill="#330A4C" fill-opacity=".316" d="M27.312 13.708c-1.514.884-2.687 2.694-3.52 5.432-.832 2.737-1.594 6.564-2.284 11.48.921-3.127 1.532-5.391 1.833-6.794.451-2.104.606-5.08 1.804-7.1.8-1.346 1.521-2.352 2.167-3.018z" clip-rule="evenodd"/><path fill="#fff" d="M20.302 43.038c2.491.356 3.794.673 3.908.95.171.415-.315.795-1.698.54-.922-.17-1.66-.667-2.21-1.49z" clip-rule="evenodd"/><path fill="#EDEDED" fill-opacity=".603" d="M21.553 8.899a32.185 32.185 0 0 0-3.562 5.207c-1.005 1.834-1.723 3.203-2.154 4.105-.134.673-.199 1.667-.196 2.98.004 1.314.117 2.774.341 4.381a35.232 35.232 0 0 1 1.802-9.165c1.004-2.963 2.26-5.466 3.77-7.508z" clip-rule="evenodd"/><defs><linearGradient id="d87t9t1dmABfzoaoCQklB" x1="25.557" x2="24.17" y1="8.626" y2="45.547" gradientUnits="userSpaceOnUse"><stop stop-color="#D9D8DC"/><stop offset="1" stop-color="#fff" stop-opacity=".385"/></linearGradient><linearGradient id="s-nXwaqOJEs4rcFuD6c9H" x1="26.184" x2="11.682" y1="8.617" y2="40.4" gradientUnits="userSpaceOnUse"><stop stop-color="#8D67AF" stop-opacity=".672"/><stop offset="1" stop-color="#9F8DAF"/></linearGradient><linearGradient id="BhwJze-0smTCJJr1NxFOq" x1="27.803" x2="27.803" y1="18.914" y2="44.474" gradientUnits="userSpaceOnUse"><stop stop-color="#26053D" stop-opacity=".762"/><stop offset="1" stop-color="#B7B4B4" stop-opacity=".278"/></linearGradient><linearGradient id="IuDtmZI4LDCkc1wpAuNBR" x1="14.689" x2="21.196" y1="20.643" y2="37.879" gradientUnits="userSpaceOnUse"><stop stop-color="#91739F" stop-opacity=".46"/><stop offset="1" stop-color="#32054F" stop-opacity=".54"/></linearGradient><linearGradient id="WZIpzcsuOdcD1R_pBKALw" x1="32.081" x2="14.188" y1="41.838" y2="27.012" gradientUnits="userSpaceOnUse"><stop stop-color="#463D49" stop-opacity=".331"/><stop offset="1" stop-color="#340A50" stop-opacity=".821"/></linearGradient><linearGradient id="5OKQs0os671VU7pQSJCTd" x1="28.403" x2="15.784" y1="19.155" y2="38.353" gradientUnits="userSpaceOnUse"><stop stop-color="#715383" stop-opacity=".145"/><stop offset="1" stop-color="#F4F4F4" stop-opacity=".234"/></linearGradient><linearGradient id="6XjiZYtCVnIopU3lNrpMe" x1="29.61" x2="20.673" y1="25.011" y2="24.465" gradientUnits="userSpaceOnUse"><stop stop-color="#A5A1A8" stop-opacity=".356"/><stop offset="1" stop-color="#370C50" stop-opacity=".582"/></linearGradient></defs></g></svg></svg><g transform="translate(16.433334350585938, 68)"><g transform="translate(0,-4)"><text><tspan dy="19" x="15.558334350585938" text-anchor="middle"><tspan text-decoration="none" font-style="normal" font-size="14px" font-weight="normal" style="font-weight: normal;" fill="#000000">Auth</tspan></tspan></text></g></g></g></g><g id="icn_xlOzHIMAkNYGnaXwUKqK3" transform="translate(3008,3024)"><g transform="translate(0,0)"><path d="&#xA;    M 0, 21.248&#xA;    C 0, 3.750272 3.750272, 0 21.248, 0&#xA;    L 42.751999999999995, 0&#xA;    C 60.249728, 0 64, 3.750272 64, 21.248&#xA;    L 64, 42.751999999999995&#xA;    C 64, 60.249728 60.249728, 64 42.751999999999995, 64&#xA;    L 21.248, 64&#xA;    C 3.750272, 64 0, 60.249728 0, 42.751999999999995&#xA;    L 0, 21.248&#xA;  " stroke-width="2" stroke="#e3d5f0" fill="#f5eff9"/></g><rect width="74" height="74" x="-5" y="-5" fill="transparent"/><rect width="54" height="54" x="5" y="5" fill="transparent"/><g><svg viewBox="0 0 50 50" width="40" height="40" x="12" y="12"><svg id="OXGJRhGPXJeDeDr1BDnRk" xmlns="http://www.w3.org/2000/svg" viewBox="11.2 4.76 27.54 41.6" width="50" height="50"><g fill="none" fill-rule="evenodd"><path fill="url(#_deogxe9SK6DZu1693EJW)" d="M26.117 5.678c-2.906 1.03-5.711 4.036-8.416 9.02-4.057 7.474-9.296 18.095-2.081 26.505 3.338 3.89 8.849 6.187 16.081 2.55 5.81-2.922 7.427-11.306 5.34-15.245-4.302-8.127-8.668-10.131-9.837-15.171-.78-3.36-1.142-5.913-1.087-7.66z" clip-rule="evenodd"/><path fill="url(#L7fDb7yRCYCR_rDDX7ldU)" d="M26.117 5.577c-2.921 1.04-5.726 4.047-8.416 9.02-4.035 7.458-9.297 18.096-2.082 26.505 3.338 3.89 8.779 5.148 11.797 2.84 1.968-1.504 3.307-2.938 4.078-5.959.859-3.364.2-7.893-.252-9.973-.571-2.633-.758-5.522-.56-8.669l-.156-.19c-1.572-1.923-2.785-3.599-3.322-5.915-.78-3.36-1.142-5.913-1.087-7.659z" clip-rule="evenodd"/><path fill="url(#CoqpI9XCUu-paRMrT2X8u)" d="M23.698 6.886c-2.72 2.15-4.743 5.756-6.068 10.819-1.987 7.594-2.203 14.597-1.502 18.67 1.36 7.897 8.404 10.894 15.63 7.219 4.447-2.262 6.3-7.117 6.201-12.387-.102-5.457-10.647-11.642-12.514-16.196-1.245-3.036-1.827-5.744-1.746-8.125z" clip-rule="evenodd"/><path fill="url(#WPju3xQx1UOP1QYdMYmXq)" d="M30.596 21.123c3.262 4.185 3.974 7.097 2.133 8.739-2.76 2.462-9.51 4.068-13.71 1.09-2.8-1.986-3.86-6.245-3.178-12.778a58.666 58.666 0 0 0-2.932 7.335c-.798 2.477-1.031 5.068-.7 7.775 1.002 2.025 3.435 3.377 7.301 4.057 5.8 1.02 11.288.516 14.97-1.34 2.456-1.239 3.617-2.47 3.485-3.697.088-1.811-.47-3.535-1.676-5.172-1.206-1.638-3.103-3.64-5.694-6.009z" clip-rule="evenodd"/><path fill="url(#S_g6p4BVkMDq8VnsfxThq)" d="M17.845 16.945c-.027 3.022.75 5.895 2.332 8.618 2.372 4.086 5.14 8.122 9.284 11.468 2.762 2.231 4.969 2.952 6.62 2.162-1.356 2.429-2.799 3.619-4.328 3.57-2.292-.072-5.088-1.075-9.568-6.458-2.986-3.589-5.03-6.983-6.13-10.184.175-1.27.36-2.535.556-3.795.195-1.26.607-3.053 1.234-5.38z" clip-rule="evenodd"/><path fill="url(#-mRGlRMAoYtrATHRkRZHK)" d="M24.853 21.092c.253 2.462 1.211 6.4 0 9.022s-6.807 7.358-5.262 11.53c1.544 4.173 5.308 3.237 7.67 1.314 2.36-1.923 3.624-5.05 3.904-7.249.28-2.199-.67-6.43-.979-10.11-.206-2.453-.066-4.557.42-6.31l-.724-.91-4.258-1.262c-.683 1.01-.94 2.334-.771 3.975z" clip-rule="evenodd"/><path fill="url(#NlNyPAgWNjSoUn4GV_eQs)" d="M26.373 8.899c-1.378.582-2.684 1.736-3.918 3.462-1.85 2.588-2.792 4.14-2.094 9.27.465 3.421.797 6.568.998 9.441l5.965-17.33c-.22-.882-.402-1.68-.548-2.392a36.64 36.64 0 0 1-.403-2.451z" clip-rule="evenodd"/><path fill="#330A4C" fill-opacity=".316" d="M27.312 13.708c-1.514.884-2.687 2.694-3.52 5.432-.832 2.737-1.594 6.564-2.284 11.48.921-3.127 1.532-5.391 1.833-6.794.451-2.104.606-5.08 1.804-7.1.8-1.346 1.521-2.352 2.167-3.018z" clip-rule="evenodd"/><path fill="#fff" d="M20.302 43.038c2.491.356 3.794.673 3.908.95.171.415-.315.795-1.698.54-.922-.17-1.66-.667-2.21-1.49z" clip-rule="evenodd"/><path fill="#EDEDED" fill-opacity=".603" d="M21.553 8.899a32.185 32.185 0 0 0-3.562 5.207c-1.005 1.834-1.723 3.203-2.154 4.105-.134.673-.199 1.667-.196 2.98.004 1.314.117 2.774.341 4.381a35.232 35.232 0 0 1 1.802-9.165c1.004-2.963 2.26-5.466 3.77-7.508z" clip-rule="evenodd"/><defs><linearGradient id="_deogxe9SK6DZu1693EJW" x1="25.557" x2="24.17" y1="8.626" y2="45.547" gradientUnits="userSpaceOnUse"><stop stop-color="#D9D8DC"/><stop offset="1" stop-color="#fff" stop-opacity=".385"/></linearGradient><linearGradient id="L7fDb7yRCYCR_rDDX7ldU" x1="26.184" x2="11.682" y1="8.617" y2="40.4" gradientUnits="userSpaceOnUse"><stop stop-color="#8D67AF" stop-opacity=".672"/><stop offset="1" stop-color="#9F8DAF"/></linearGradient><linearGradient id="CoqpI9XCUu-paRMrT2X8u" x1="27.803" x2="27.803" y1="18.914" y2="44.474" gradientUnits="userSpaceOnUse"><stop stop-color="#26053D" stop-opacity=".762"/><stop offset="1" stop-color="#B7B4B4" stop-opacity=".278"/></linearGradient><linearGradient id="WPju3xQx1UOP1QYdMYmXq" x1="14.689" x2="21.196" y1="20.643" y2="37.879" gradientUnits="userSpaceOnUse"><stop stop-color="#91739F" stop-opacity=".46"/><stop offset="1" stop-color="#32054F" stop-opacity=".54"/></linearGradient><linearGradient id="S_g6p4BVkMDq8VnsfxThq" x1="32.081" x2="14.188" y1="41.838" y2="27.012" gradientUnits="userSpaceOnUse"><stop stop-color="#463D49" stop-opacity=".331"/><stop offset="1" stop-color="#340A50" stop-opacity=".821"/></linearGradient><linearGradient id="-mRGlRMAoYtrATHRkRZHK" x1="28.403" x2="15.784" y1="19.155" y2="38.353" gradientUnits="userSpaceOnUse"><stop stop-color="#715383" stop-opacity=".145"/><stop offset="1" stop-color="#F4F4F4" stop-opacity=".234"/></linearGradient><linearGradient id="NlNyPAgWNjSoUn4GV_eQs" x1="29.61" x2="20.673" y1="25.011" y2="24.465" gradientUnits="userSpaceOnUse"><stop stop-color="#A5A1A8" stop-opacity=".356"/><stop offset="1" stop-color="#370C50" stop-opacity=".582"/></linearGradient></defs></g></svg></svg><g transform="translate(12.550003051757812, 68)"><g transform="translate(0,-4)"><text><tspan dy="19" x="19.441665649414062" text-anchor="middle"><tspan text-decoration="none" font-style="normal" font-size="14px" font-weight="normal" style="font-weight: normal;" fill="#000000">Alerts</tspan></tspan></text></g></g></g></g><g id="icn_BQ8ASRoi7yN7Ts9jdeu5M" transform="translate(2896,2896)"><g transform="translate(0,0)"><path d="&#xA;    M 0, 21.248&#xA;    C 0, 3.750272 3.750272, 0 21.248, 0&#xA;    L 42.751999999999995, 0&#xA;    C 60.249728, 0 64, 3.750272 64, 21.248&#xA;    L 64, 42.751999999999995&#xA;    C 64, 60.249728 60.249728, 64 42.751999999999995, 64&#xA;    L 21.248, 64&#xA;    C 3.750272, 64 0, 60.249728 0, 42.751999999999995&#xA;    L 0, 21.248&#xA;  " stroke-width="2" stroke="#e3d5f0" fill="#f5eff9"/></g><rect width="74" height="74" x="-5" y="-5" fill="transparent"/><rect width="54" height="54" x="5" y="5" fill="transparent"/><g><svg viewBox="0 0 50 50" width="40" height="40" x="12" y="12"><svg id="c3p-aNs1Er7eC32WFK_DF" xmlns="http://www.w3.org/2000/svg" viewBox="11.2 4.76 27.54 41.6" width="50" height="50"><g fill="none" fill-rule="evenodd"><path fill="url(#kMs8Bmp_Hc1igIn73XOMJ)" d="M26.117 5.678c-2.906 1.03-5.711 4.036-8.416 9.02-4.057 7.474-9.296 18.095-2.081 26.505 3.338 3.89 8.849 6.187 16.081 2.55 5.81-2.922 7.427-11.306 5.34-15.245-4.302-8.127-8.668-10.131-9.837-15.171-.78-3.36-1.142-5.913-1.087-7.66z" clip-rule="evenodd"/><path fill="url(#otYOAeEKdBnMXbl8uZfgT)" d="M26.117 5.577c-2.921 1.04-5.726 4.047-8.416 9.02-4.035 7.458-9.297 18.096-2.082 26.505 3.338 3.89 8.779 5.148 11.797 2.84 1.968-1.504 3.307-2.938 4.078-5.959.859-3.364.2-7.893-.252-9.973-.571-2.633-.758-5.522-.56-8.669l-.156-.19c-1.572-1.923-2.785-3.599-3.322-5.915-.78-3.36-1.142-5.913-1.087-7.659z" clip-rule="evenodd"/><path fill="url(#3YvhXpgK2ZemxuxKUtgHc)" d="M23.698 6.886c-2.72 2.15-4.743 5.756-6.068 10.819-1.987 7.594-2.203 14.597-1.502 18.67 1.36 7.897 8.404 10.894 15.63 7.219 4.447-2.262 6.3-7.117 6.201-12.387-.102-5.457-10.647-11.642-12.514-16.196-1.245-3.036-1.827-5.744-1.746-8.125z" clip-rule="evenodd"/><path fill="url(#XAFhAhB3CkhANqxVMQONn)" d="M30.596 21.123c3.262 4.185 3.974 7.097 2.133 8.739-2.76 2.462-9.51 4.068-13.71 1.09-2.8-1.986-3.86-6.245-3.178-12.778a58.666 58.666 0 0 0-2.932 7.335c-.798 2.477-1.031 5.068-.7 7.775 1.002 2.025 3.435 3.377 7.301 4.057 5.8 1.02 11.288.516 14.97-1.34 2.456-1.239 3.617-2.47 3.485-3.697.088-1.811-.47-3.535-1.676-5.172-1.206-1.638-3.103-3.64-5.694-6.009z" clip-rule="evenodd"/><path fill="url(#RCXCLh8Hh1OKp47i5BGgp)" d="M17.845 16.945c-.027 3.022.75 5.895 2.332 8.618 2.372 4.086 5.14 8.122 9.284 11.468 2.762 2.231 4.969 2.952 6.62 2.162-1.356 2.429-2.799 3.619-4.328 3.57-2.292-.072-5.088-1.075-9.568-6.458-2.986-3.589-5.03-6.983-6.13-10.184.175-1.27.36-2.535.556-3.795.195-1.26.607-3.053 1.234-5.38z" clip-rule="evenodd"/><path fill="url(#7laktl0-fIocgSSn_bzbp)" d="M24.853 21.092c.253 2.462 1.211 6.4 0 9.022s-6.807 7.358-5.262 11.53c1.544 4.173 5.308 3.237 7.67 1.314 2.36-1.923 3.624-5.05 3.904-7.249.28-2.199-.67-6.43-.979-10.11-.206-2.453-.066-4.557.42-6.31l-.724-.91-4.258-1.262c-.683 1.01-.94 2.334-.771 3.975z" clip-rule="evenodd"/><path fill="url(#GKvdKF60QQgtE39NB10Fp)" d="M26.373 8.899c-1.378.582-2.684 1.736-3.918 3.462-1.85 2.588-2.792 4.14-2.094 9.27.465 3.421.797 6.568.998 9.441l5.965-17.33c-.22-.882-.402-1.68-.548-2.392a36.64 36.64 0 0 1-.403-2.451z" clip-rule="evenodd"/><path fill="#330A4C" fill-opacity=".316" d="M27.312 13.708c-1.514.884-2.687 2.694-3.52 5.432-.832 2.737-1.594 6.564-2.284 11.48.921-3.127 1.532-5.391 1.833-6.794.451-2.104.606-5.08 1.804-7.1.8-1.346 1.521-2.352 2.167-3.018z" clip-rule="evenodd"/><path fill="#fff" d="M20.302 43.038c2.491.356 3.794.673 3.908.95.171.415-.315.795-1.698.54-.922-.17-1.66-.667-2.21-1.49z" clip-rule="evenodd"/><path fill="#EDEDED" fill-opacity=".603" d="M21.553 8.899a32.185 32.185 0 0 0-3.562 5.207c-1.005 1.834-1.723 3.203-2.154 4.105-.134.673-.199 1.667-.196 2.98.004 1.314.117 2.774.341 4.381a35.232 35.232 0 0 1 1.802-9.165c1.004-2.963 2.26-5.466 3.77-7.508z" clip-rule="evenodd"/><defs><linearGradient id="kMs8Bmp_Hc1igIn73XOMJ" x1="25.557" x2="24.17" y1="8.626" y2="45.547" gradientUnits="userSpaceOnUse"><stop stop-color="#D9D8DC"/><stop offset="1" stop-color="#fff" stop-opacity=".385"/></linearGradient><linearGradient id="otYOAeEKdBnMXbl8uZfgT" x1="26.184" x2="11.682" y1="8.617" y2="40.4" gradientUnits="userSpaceOnUse"><stop stop-color="#8D67AF" stop-opacity=".672"/><stop offset="1" stop-color="#9F8DAF"/></linearGradient><linearGradient id="3YvhXpgK2ZemxuxKUtgHc" x1="27.803" x2="27.803" y1="18.914" y2="44.474" gradientUnits="userSpaceOnUse"><stop stop-color="#26053D" stop-opacity=".762"/><stop offset="1" stop-color="#B7B4B4" stop-opacity=".278"/></linearGradient><linearGradient id="XAFhAhB3CkhANqxVMQONn" x1="14.689" x2="21.196" y1="20.643" y2="37.879" gradientUnits="userSpaceOnUse"><stop stop-color="#91739F" stop-opacity=".46"/><stop offset="1" stop-color="#32054F" stop-opacity=".54"/></linearGradient><linearGradient id="RCXCLh8Hh1OKp47i5BGgp" x1="32.081" x2="14.188" y1="41.838" y2="27.012" gradientUnits="userSpaceOnUse"><stop stop-color="#463D49" stop-opacity=".331"/><stop offset="1" stop-color="#340A50" stop-opacity=".821"/></linearGradient><linearGradient id="7laktl0-fIocgSSn_bzbp" x1="28.403" x2="15.784" y1="19.155" y2="38.353" gradientUnits="userSpaceOnUse"><stop stop-color="#715383" stop-opacity=".145"/><stop offset="1" stop-color="#F4F4F4" stop-opacity=".234"/></linearGradient><linearGradient id="GKvdKF60QQgtE39NB10Fp" x1="29.61" x2="20.673" y1="25.011" y2="24.465" gradientUnits="userSpaceOnUse"><stop stop-color="#A5A1A8" stop-opacity=".356"/><stop offset="1" stop-color="#370C50" stop-opacity=".582"/></linearGradient></defs></g></svg></svg><g transform="translate(16.466659545898438, 68)"><g transform="translate(0,-4)"><text><tspan dy="19" x="15.533340454101562" text-anchor="middle"><tspan text-decoration="none" font-style="normal" font-size="14px" font-weight="normal" style="font-weight: normal;" fill="#000000">User</tspan></tspan></text></g></g></g></g><g id="icn_mNVrOL3ebpYU5hKs7HVjS" transform="translate(3232,3024)"><g transform="translate(0,0)"><path d="&#xA;    M 0, 21.248&#xA;    C 0, 3.750272 3.750272, 0 21.248, 0&#xA;    L 42.751999999999995, 0&#xA;    C 60.249728, 0 64, 3.750272 64, 21.248&#xA;    L 64, 42.751999999999995&#xA;    C 64, 60.249728 60.249728, 64 42.751999999999995, 64&#xA;    L 21.248, 64&#xA;    C 3.750272, 64 0, 60.249728 0, 42.751999999999995&#xA;    L 0, 21.248&#xA;  " stroke-width="2" stroke="#e3d5f0" fill="#f5eff9"/></g><rect width="74" height="74" x="-5" y="-5" fill="transparent"/><rect width="54" height="54" x="5" y="5" fill="transparent"/><g><svg viewBox="0 0 50 50" width="40" height="40" x="12" y="12"><svg id="e8PnpHFiUq_mY2Zv1Srz7" xmlns="http://www.w3.org/2000/svg" viewBox="11.2 4.76 27.54 41.6" width="50" height="50"><g fill="none" fill-rule="evenodd"><path fill="url(#uomFIiVUW7M-1F0RJBuiB)" d="M26.117 5.678c-2.906 1.03-5.711 4.036-8.416 9.02-4.057 7.474-9.296 18.095-2.081 26.505 3.338 3.89 8.849 6.187 16.081 2.55 5.81-2.922 7.427-11.306 5.34-15.245-4.302-8.127-8.668-10.131-9.837-15.171-.78-3.36-1.142-5.913-1.087-7.66z" clip-rule="evenodd"/><path fill="url(#Gvsrg0feVK2KNbVG_l-r4)" d="M26.117 5.577c-2.921 1.04-5.726 4.047-8.416 9.02-4.035 7.458-9.297 18.096-2.082 26.505 3.338 3.89 8.779 5.148 11.797 2.84 1.968-1.504 3.307-2.938 4.078-5.959.859-3.364.2-7.893-.252-9.973-.571-2.633-.758-5.522-.56-8.669l-.156-.19c-1.572-1.923-2.785-3.599-3.322-5.915-.78-3.36-1.142-5.913-1.087-7.659z" clip-rule="evenodd"/><path fill="url(#h4PixZ2DchGoE4URFbfyz)" d="M23.698 6.886c-2.72 2.15-4.743 5.756-6.068 10.819-1.987 7.594-2.203 14.597-1.502 18.67 1.36 7.897 8.404 10.894 15.63 7.219 4.447-2.262 6.3-7.117 6.201-12.387-.102-5.457-10.647-11.642-12.514-16.196-1.245-3.036-1.827-5.744-1.746-8.125z" clip-rule="evenodd"/><path fill="url(#g2v_Wtc4EcD7wSQdgdxqt)" d="M30.596 21.123c3.262 4.185 3.974 7.097 2.133 8.739-2.76 2.462-9.51 4.068-13.71 1.09-2.8-1.986-3.86-6.245-3.178-12.778a58.666 58.666 0 0 0-2.932 7.335c-.798 2.477-1.031 5.068-.7 7.775 1.002 2.025 3.435 3.377 7.301 4.057 5.8 1.02 11.288.516 14.97-1.34 2.456-1.239 3.617-2.47 3.485-3.697.088-1.811-.47-3.535-1.676-5.172-1.206-1.638-3.103-3.64-5.694-6.009z" clip-rule="evenodd"/><path fill="url(#Ugs81eyflxyaV2Sjt2ctu)" d="M17.845 16.945c-.027 3.022.75 5.895 2.332 8.618 2.372 4.086 5.14 8.122 9.284 11.468 2.762 2.231 4.969 2.952 6.62 2.162-1.356 2.429-2.799 3.619-4.328 3.57-2.292-.072-5.088-1.075-9.568-6.458-2.986-3.589-5.03-6.983-6.13-10.184.175-1.27.36-2.535.556-3.795.195-1.26.607-3.053 1.234-5.38z" clip-rule="evenodd"/><path fill="url(#1I4cRi66Y30yEn1yGtrm9)" d="M24.853 21.092c.253 2.462 1.211 6.4 0 9.022s-6.807 7.358-5.262 11.53c1.544 4.173 5.308 3.237 7.67 1.314 2.36-1.923 3.624-5.05 3.904-7.249.28-2.199-.67-6.43-.979-10.11-.206-2.453-.066-4.557.42-6.31l-.724-.91-4.258-1.262c-.683 1.01-.94 2.334-.771 3.975z" clip-rule="evenodd"/><path fill="url(#uPRHCZW8MaUXjUG2cw2mm)" d="M26.373 8.899c-1.378.582-2.684 1.736-3.918 3.462-1.85 2.588-2.792 4.14-2.094 9.27.465 3.421.797 6.568.998 9.441l5.965-17.33c-.22-.882-.402-1.68-.548-2.392a36.64 36.64 0 0 1-.403-2.451z" clip-rule="evenodd"/><path fill="#330A4C" fill-opacity=".316" d="M27.312 13.708c-1.514.884-2.687 2.694-3.52 5.432-.832 2.737-1.594 6.564-2.284 11.48.921-3.127 1.532-5.391 1.833-6.794.451-2.104.606-5.08 1.804-7.1.8-1.346 1.521-2.352 2.167-3.018z" clip-rule="evenodd"/><path fill="#fff" d="M20.302 43.038c2.491.356 3.794.673 3.908.95.171.415-.315.795-1.698.54-.922-.17-1.66-.667-2.21-1.49z" clip-rule="evenodd"/><path fill="#EDEDED" fill-opacity=".603" d="M21.553 8.899a32.185 32.185 0 0 0-3.562 5.207c-1.005 1.834-1.723 3.203-2.154 4.105-.134.673-.199 1.667-.196 2.98.004 1.314.117 2.774.341 4.381a35.232 35.232 0 0 1 1.802-9.165c1.004-2.963 2.26-5.466 3.77-7.508z" clip-rule="evenodd"/><defs><linearGradient id="uomFIiVUW7M-1F0RJBuiB" x1="25.557" x2="24.17" y1="8.626" y2="45.547" gradientUnits="userSpaceOnUse"><stop stop-color="#D9D8DC"/><stop offset="1" stop-color="#fff" stop-opacity=".385"/></linearGradient><linearGradient id="Gvsrg0feVK2KNbVG_l-r4" x1="26.184" x2="11.682" y1="8.617" y2="40.4" gradientUnits="userSpaceOnUse"><stop stop-color="#8D67AF" stop-opacity=".672"/><stop offset="1" stop-color="#9F8DAF"/></linearGradient><linearGradient id="h4PixZ2DchGoE4URFbfyz" x1="27.803" x2="27.803" y1="18.914" y2="44.474" gradientUnits="userSpaceOnUse"><stop stop-color="#26053D" stop-opacity=".762"/><stop offset="1" stop-color="#B7B4B4" stop-opacity=".278"/></linearGradient><linearGradient id="g2v_Wtc4EcD7wSQdgdxqt" x1="14.689" x2="21.196" y1="20.643" y2="37.879" gradientUnits="userSpaceOnUse"><stop stop-color="#91739F" stop-opacity=".46"/><stop offset="1" stop-color="#32054F" stop-opacity=".54"/></linearGradient><linearGradient id="Ugs81eyflxyaV2Sjt2ctu" x1="32.081" x2="14.188" y1="41.838" y2="27.012" gradientUnits="userSpaceOnUse"><stop stop-color="#463D49" stop-opacity=".331"/><stop offset="1" stop-color="#340A50" stop-opacity=".821"/></linearGradient><linearGradient id="1I4cRi66Y30yEn1yGtrm9" x1="28.403" x2="15.784" y1="19.155" y2="38.353" gradientUnits="userSpaceOnUse"><stop stop-color="#715383" stop-opacity=".145"/><stop offset="1" stop-color="#F4F4F4" stop-opacity=".234"/></linearGradient><linearGradient id="uPRHCZW8MaUXjUG2cw2mm" x1="29.61" x2="20.673" y1="25.011" y2="24.465" gradientUnits="userSpaceOnUse"><stop stop-color="#A5A1A8" stop-opacity=".356"/><stop offset="1" stop-color="#370C50" stop-opacity=".582"/></linearGradient></defs></g></svg></svg><g transform="translate(1.1666717529296875, 68)"><g transform="translate(0,-4)"><text><tspan dy="19" x="30.824996948242188" text-anchor="middle"><tspan text-decoration="none" font-style="normal" font-size="14px" font-weight="normal" style="font-weight: normal;" fill="#000000">UI Config</tspan></tspan></text></g></g></g></g><g id="icn_lGl0DMLnLpovEArtFfSKp" transform="translate(2896,3024)"><g transform="translate(0,0)"><path d="&#xA;    M 0, 21.248&#xA;    C 0, 3.750272 3.750272, 0 21.248, 0&#xA;    L 42.751999999999995, 0&#xA;    C 60.249728, 0 64, 3.750272 64, 21.248&#xA;    L 64, 42.751999999999995&#xA;    C 64, 60.249728 60.249728, 64 42.751999999999995, 64&#xA;    L 21.248, 64&#xA;    C 3.750272, 64 0, 60.249728 0, 42.751999999999995&#xA;    L 0, 21.248&#xA;  " stroke-width="2" stroke="#e3d5f0" fill="#f5eff9"/></g><rect width="74" height="74" x="-5" y="-5" fill="transparent"/><rect width="54" height="54" x="5" y="5" fill="transparent"/><g><svg viewBox="0 0 50 50" width="40" height="40" x="12" y="12"><svg id="WGBeECD5ip9Tw-eyUeNHN" xmlns="http://www.w3.org/2000/svg" viewBox="11.2 4.76 27.54 41.6" width="50" height="50"><g fill="none" fill-rule="evenodd"><path fill="url(#IK9naLAf0gH87VkfDi7lV)" d="M26.117 5.678c-2.906 1.03-5.711 4.036-8.416 9.02-4.057 7.474-9.296 18.095-2.081 26.505 3.338 3.89 8.849 6.187 16.081 2.55 5.81-2.922 7.427-11.306 5.34-15.245-4.302-8.127-8.668-10.131-9.837-15.171-.78-3.36-1.142-5.913-1.087-7.66z" clip-rule="evenodd"/><path fill="url(#fKEEmwNsvFelvAC4c_hZw)" d="M26.117 5.577c-2.921 1.04-5.726 4.047-8.416 9.02-4.035 7.458-9.297 18.096-2.082 26.505 3.338 3.89 8.779 5.148 11.797 2.84 1.968-1.504 3.307-2.938 4.078-5.959.859-3.364.2-7.893-.252-9.973-.571-2.633-.758-5.522-.56-8.669l-.156-.19c-1.572-1.923-2.785-3.599-3.322-5.915-.78-3.36-1.142-5.913-1.087-7.659z" clip-rule="evenodd"/><path fill="url(#hGAGEZ5hiu-bfA5LyGhQW)" d="M23.698 6.886c-2.72 2.15-4.743 5.756-6.068 10.819-1.987 7.594-2.203 14.597-1.502 18.67 1.36 7.897 8.404 10.894 15.63 7.219 4.447-2.262 6.3-7.117 6.201-12.387-.102-5.457-10.647-11.642-12.514-16.196-1.245-3.036-1.827-5.744-1.746-8.125z" clip-rule="evenodd"/><path fill="url(#5hJAPrnT4RBgvLYGQc0Zo)" d="M30.596 21.123c3.262 4.185 3.974 7.097 2.133 8.739-2.76 2.462-9.51 4.068-13.71 1.09-2.8-1.986-3.86-6.245-3.178-12.778a58.666 58.666 0 0 0-2.932 7.335c-.798 2.477-1.031 5.068-.7 7.775 1.002 2.025 3.435 3.377 7.301 4.057 5.8 1.02 11.288.516 14.97-1.34 2.456-1.239 3.617-2.47 3.485-3.697.088-1.811-.47-3.535-1.676-5.172-1.206-1.638-3.103-3.64-5.694-6.009z" clip-rule="evenodd"/><path fill="url(#nfSXm4DI_H1N8iZTbzLJI)" d="M17.845 16.945c-.027 3.022.75 5.895 2.332 8.618 2.372 4.086 5.14 8.122 9.284 11.468 2.762 2.231 4.969 2.952 6.62 2.162-1.356 2.429-2.799 3.619-4.328 3.57-2.292-.072-5.088-1.075-9.568-6.458-2.986-3.589-5.03-6.983-6.13-10.184.175-1.27.36-2.535.556-3.795.195-1.26.607-3.053 1.234-5.38z" clip-rule="evenodd"/><path fill="url(#0gc_R_Hz-Z11V7RnCnxRX)" d="M24.853 21.092c.253 2.462 1.211 6.4 0 9.022s-6.807 7.358-5.262 11.53c1.544 4.173 5.308 3.237 7.67 1.314 2.36-1.923 3.624-5.05 3.904-7.249.28-2.199-.67-6.43-.979-10.11-.206-2.453-.066-4.557.42-6.31l-.724-.91-4.258-1.262c-.683 1.01-.94 2.334-.771 3.975z" clip-rule="evenodd"/><path fill="url(#2oINyCQv1J3_DjvniNoGX)" d="M26.373 8.899c-1.378.582-2.684 1.736-3.918 3.462-1.85 2.588-2.792 4.14-2.094 9.27.465 3.421.797 6.568.998 9.441l5.965-17.33c-.22-.882-.402-1.68-.548-2.392a36.64 36.64 0 0 1-.403-2.451z" clip-rule="evenodd"/><path fill="#330A4C" fill-opacity=".316" d="M27.312 13.708c-1.514.884-2.687 2.694-3.52 5.432-.832 2.737-1.594 6.564-2.284 11.48.921-3.127 1.532-5.391 1.833-6.794.451-2.104.606-5.08 1.804-7.1.8-1.346 1.521-2.352 2.167-3.018z" clip-rule="evenodd"/><path fill="#fff" d="M20.302 43.038c2.491.356 3.794.673 3.908.95.171.415-.315.795-1.698.54-.922-.17-1.66-.667-2.21-1.49z" clip-rule="evenodd"/><path fill="#EDEDED" fill-opacity=".603" d="M21.553 8.899a32.185 32.185 0 0 0-3.562 5.207c-1.005 1.834-1.723 3.203-2.154 4.105-.134.673-.199 1.667-.196 2.98.004 1.314.117 2.774.341 4.381a35.232 35.232 0 0 1 1.802-9.165c1.004-2.963 2.26-5.466 3.77-7.508z" clip-rule="evenodd"/><defs><linearGradient id="IK9naLAf0gH87VkfDi7lV" x1="25.557" x2="24.17" y1="8.626" y2="45.547" gradientUnits="userSpaceOnUse"><stop stop-color="#D9D8DC"/><stop offset="1" stop-color="#fff" stop-opacity=".385"/></linearGradient><linearGradient id="fKEEmwNsvFelvAC4c_hZw" x1="26.184" x2="11.682" y1="8.617" y2="40.4" gradientUnits="userSpaceOnUse"><stop stop-color="#8D67AF" stop-opacity=".672"/><stop offset="1" stop-color="#9F8DAF"/></linearGradient><linearGradient id="hGAGEZ5hiu-bfA5LyGhQW" x1="27.803" x2="27.803" y1="18.914" y2="44.474" gradientUnits="userSpaceOnUse"><stop stop-color="#26053D" stop-opacity=".762"/><stop offset="1" stop-color="#B7B4B4" stop-opacity=".278"/></linearGradient><linearGradient id="5hJAPrnT4RBgvLYGQc0Zo" x1="14.689" x2="21.196" y1="20.643" y2="37.879" gradientUnits="userSpaceOnUse"><stop stop-color="#91739F" stop-opacity=".46"/><stop offset="1" stop-color="#32054F" stop-opacity=".54"/></linearGradient><linearGradient id="nfSXm4DI_H1N8iZTbzLJI" x1="32.081" x2="14.188" y1="41.838" y2="27.012" gradientUnits="userSpaceOnUse"><stop stop-color="#463D49" stop-opacity=".331"/><stop offset="1" stop-color="#340A50" stop-opacity=".821"/></linearGradient><linearGradient id="0gc_R_Hz-Z11V7RnCnxRX" x1="28.403" x2="15.784" y1="19.155" y2="38.353" gradientUnits="userSpaceOnUse"><stop stop-color="#715383" stop-opacity=".145"/><stop offset="1" stop-color="#F4F4F4" stop-opacity=".234"/></linearGradient><linearGradient id="2oINyCQv1J3_DjvniNoGX" x1="29.61" x2="20.673" y1="25.011" y2="24.465" gradientUnits="userSpaceOnUse"><stop stop-color="#A5A1A8" stop-opacity=".356"/><stop offset="1" stop-color="#370C50" stop-opacity=".582"/></linearGradient></defs></g></svg></svg><g transform="translate(-9.816665649414062, 68)"><g transform="translate(0,-4)"><text><tspan dy="19" x="41.81666564941406" text-anchor="middle"><tspan text-decoration="none" font-style="normal" font-size="14px" font-weight="normal" style="font-weight: normal;" fill="#000000">Notifications</tspan></tspan></text></g></g></g></g><g id="icn_VRTpChnoyfWzgv1OVJvSJ" transform="translate(3120,3024)"><g transform="translate(0,0)"><path d="&#xA;    M 0, 21.248&#xA;    C 0, 3.750272 3.750272, 0 21.248, 0&#xA;    L 42.751999999999995, 0&#xA;    C 60.249728, 0 64, 3.750272 64, 21.248&#xA;    L 64, 42.751999999999995&#xA;    C 64, 60.249728 60.249728, 64 42.751999999999995, 64&#xA;    L 21.248, 64&#xA;    C 3.750272, 64 0, 60.249728 0, 42.751999999999995&#xA;    L 0, 21.248&#xA;  " stroke-width="2" stroke="#e3d5f0" fill="#f5eff9"/></g><rect width="74" height="74" x="-5" y="-5" fill="transparent"/><rect width="54" height="54" x="5" y="5" fill="transparent"/><g><svg viewBox="0 0 50 50" width="40" height="40" x="12" y="12"><svg id="kdnoXQ7N4RMQEfavmydC7" xmlns="http://www.w3.org/2000/svg" viewBox="11.2 4.76 27.54 41.6" width="50" height="50"><g fill="none" fill-rule="evenodd"><path fill="url(#Jd5UTrKZr4BKhtYx_GPnp)" d="M26.117 5.678c-2.906 1.03-5.711 4.036-8.416 9.02-4.057 7.474-9.296 18.095-2.081 26.505 3.338 3.89 8.849 6.187 16.081 2.55 5.81-2.922 7.427-11.306 5.34-15.245-4.302-8.127-8.668-10.131-9.837-15.171-.78-3.36-1.142-5.913-1.087-7.66z" clip-rule="evenodd"/><path fill="url(#P7H7tgl-qY0VJzR62VQVA)" d="M26.117 5.577c-2.921 1.04-5.726 4.047-8.416 9.02-4.035 7.458-9.297 18.096-2.082 26.505 3.338 3.89 8.779 5.148 11.797 2.84 1.968-1.504 3.307-2.938 4.078-5.959.859-3.364.2-7.893-.252-9.973-.571-2.633-.758-5.522-.56-8.669l-.156-.19c-1.572-1.923-2.785-3.599-3.322-5.915-.78-3.36-1.142-5.913-1.087-7.659z" clip-rule="evenodd"/><path fill="url(#7cPKvxu9PyijkcjPgFPv9)" d="M23.698 6.886c-2.72 2.15-4.743 5.756-6.068 10.819-1.987 7.594-2.203 14.597-1.502 18.67 1.36 7.897 8.404 10.894 15.63 7.219 4.447-2.262 6.3-7.117 6.201-12.387-.102-5.457-10.647-11.642-12.514-16.196-1.245-3.036-1.827-5.744-1.746-8.125z" clip-rule="evenodd"/><path fill="url(#WrEcq1I4p-xHcL9iuBfpJ)" d="M30.596 21.123c3.262 4.185 3.974 7.097 2.133 8.739-2.76 2.462-9.51 4.068-13.71 1.09-2.8-1.986-3.86-6.245-3.178-12.778a58.666 58.666 0 0 0-2.932 7.335c-.798 2.477-1.031 5.068-.7 7.775 1.002 2.025 3.435 3.377 7.301 4.057 5.8 1.02 11.288.516 14.97-1.34 2.456-1.239 3.617-2.47 3.485-3.697.088-1.811-.47-3.535-1.676-5.172-1.206-1.638-3.103-3.64-5.694-6.009z" clip-rule="evenodd"/><path fill="url(#UBjsGGvxpVco0fJtOHlCG)" d="M17.845 16.945c-.027 3.022.75 5.895 2.332 8.618 2.372 4.086 5.14 8.122 9.284 11.468 2.762 2.231 4.969 2.952 6.62 2.162-1.356 2.429-2.799 3.619-4.328 3.57-2.292-.072-5.088-1.075-9.568-6.458-2.986-3.589-5.03-6.983-6.13-10.184.175-1.27.36-2.535.556-3.795.195-1.26.607-3.053 1.234-5.38z" clip-rule="evenodd"/><path fill="url(#2evM2-U3LLAOmyg8qPgZU)" d="M24.853 21.092c.253 2.462 1.211 6.4 0 9.022s-6.807 7.358-5.262 11.53c1.544 4.173 5.308 3.237 7.67 1.314 2.36-1.923 3.624-5.05 3.904-7.249.28-2.199-.67-6.43-.979-10.11-.206-2.453-.066-4.557.42-6.31l-.724-.91-4.258-1.262c-.683 1.01-.94 2.334-.771 3.975z" clip-rule="evenodd"/><path fill="url(#mOclrkd9YsmSyP1ak3ZxA)" d="M26.373 8.899c-1.378.582-2.684 1.736-3.918 3.462-1.85 2.588-2.792 4.14-2.094 9.27.465 3.421.797 6.568.998 9.441l5.965-17.33c-.22-.882-.402-1.68-.548-2.392a36.64 36.64 0 0 1-.403-2.451z" clip-rule="evenodd"/><path fill="#330A4C" fill-opacity=".316" d="M27.312 13.708c-1.514.884-2.687 2.694-3.52 5.432-.832 2.737-1.594 6.564-2.284 11.48.921-3.127 1.532-5.391 1.833-6.794.451-2.104.606-5.08 1.804-7.1.8-1.346 1.521-2.352 2.167-3.018z" clip-rule="evenodd"/><path fill="#fff" d="M20.302 43.038c2.491.356 3.794.673 3.908.95.171.415-.315.795-1.698.54-.922-.17-1.66-.667-2.21-1.49z" clip-rule="evenodd"/><path fill="#EDEDED" fill-opacity=".603" d="M21.553 8.899a32.185 32.185 0 0 0-3.562 5.207c-1.005 1.834-1.723 3.203-2.154 4.105-.134.673-.199 1.667-.196 2.98.004 1.314.117 2.774.341 4.381a35.232 35.232 0 0 1 1.802-9.165c1.004-2.963 2.26-5.466 3.77-7.508z" clip-rule="evenodd"/><defs><linearGradient id="Jd5UTrKZr4BKhtYx_GPnp" x1="25.557" x2="24.17" y1="8.626" y2="45.547" gradientUnits="userSpaceOnUse"><stop stop-color="#D9D8DC"/><stop offset="1" stop-color="#fff" stop-opacity=".385"/></linearGradient><linearGradient id="P7H7tgl-qY0VJzR62VQVA" x1="26.184" x2="11.682" y1="8.617" y2="40.4" gradientUnits="userSpaceOnUse"><stop stop-color="#8D67AF" stop-opacity=".672"/><stop offset="1" stop-color="#9F8DAF"/></linearGradient><linearGradient id="7cPKvxu9PyijkcjPgFPv9" x1="27.803" x2="27.803" y1="18.914" y2="44.474" gradientUnits="userSpaceOnUse"><stop stop-color="#26053D" stop-opacity=".762"/><stop offset="1" stop-color="#B7B4B4" stop-opacity=".278"/></linearGradient><linearGradient id="WrEcq1I4p-xHcL9iuBfpJ" x1="14.689" x2="21.196" y1="20.643" y2="37.879" gradientUnits="userSpaceOnUse"><stop stop-color="#91739F" stop-opacity=".46"/><stop offset="1" stop-color="#32054F" stop-opacity=".54"/></linearGradient><linearGradient id="UBjsGGvxpVco0fJtOHlCG" x1="32.081" x2="14.188" y1="41.838" y2="27.012" gradientUnits="userSpaceOnUse"><stop stop-color="#463D49" stop-opacity=".331"/><stop offset="1" stop-color="#340A50" stop-opacity=".821"/></linearGradient><linearGradient id="2evM2-U3LLAOmyg8qPgZU" x1="28.403" x2="15.784" y1="19.155" y2="38.353" gradientUnits="userSpaceOnUse"><stop stop-color="#715383" stop-opacity=".145"/><stop offset="1" stop-color="#F4F4F4" stop-opacity=".234"/></linearGradient><linearGradient id="mOclrkd9YsmSyP1ak3ZxA" x1="29.61" x2="20.673" y1="25.011" y2="24.465" gradientUnits="userSpaceOnUse"><stop stop-color="#A5A1A8" stop-opacity=".356"/><stop offset="1" stop-color="#370C50" stop-opacity=".582"/></linearGradient></defs></g></svg></svg><g transform="translate(16.033340454101562, 68)"><g transform="translate(0,-4)"><text><tspan dy="19" x="15.974998474121094" text-anchor="middle"><tspan text-decoration="none" font-style="normal" font-size="14px" font-weight="normal" style="font-weight: normal;" fill="#000000">Jobs</tspan></tspan></text></g></g></g></g><g id="icn_6KpzQsBCcgUWexhyYAbQs" transform="translate(3232,2736)"><g transform="translate(0,0)"><path d="&#xA;    M 0, 21.248&#xA;    C 0, 3.750272 3.750272, 0 21.248, 0&#xA;    L 42.751999999999995, 0&#xA;    C 60.249728, 0 64, 3.750272 64, 21.248&#xA;    L 64, 42.751999999999995&#xA;    C 64, 60.249728 60.249728, 64 42.751999999999995, 64&#xA;    L 21.248, 64&#xA;    C 3.750272, 64 0, 60.249728 0, 42.751999999999995&#xA;    L 0, 21.248&#xA;  " stroke-width="2" stroke="#e3d5f0" fill="#f5eff9"/></g><rect width="74" height="74" x="-5" y="-5" fill="transparent"/><rect width="54" height="54" x="5" y="5" fill="transparent"/><g><svg viewBox="0 0 50 50" width="40" height="40" x="12" y="12"><svg id="YKeAtQsn29l0teFIDURZz" xmlns="http://www.w3.org/2000/svg" viewBox="11.2 4.76 27.54 41.6" width="50" height="50"><g fill="none" fill-rule="evenodd"><path fill="url(#v2x9FuSEjwcJDHXVeyrvs)" d="M26.117 5.678c-2.906 1.03-5.711 4.036-8.416 9.02-4.057 7.474-9.296 18.095-2.081 26.505 3.338 3.89 8.849 6.187 16.081 2.55 5.81-2.922 7.427-11.306 5.34-15.245-4.302-8.127-8.668-10.131-9.837-15.171-.78-3.36-1.142-5.913-1.087-7.66z" clip-rule="evenodd"/><path fill="url(#1vou02EsxXc7L6lDr07jS)" d="M26.117 5.577c-2.921 1.04-5.726 4.047-8.416 9.02-4.035 7.458-9.297 18.096-2.082 26.505 3.338 3.89 8.779 5.148 11.797 2.84 1.968-1.504 3.307-2.938 4.078-5.959.859-3.364.2-7.893-.252-9.973-.571-2.633-.758-5.522-.56-8.669l-.156-.19c-1.572-1.923-2.785-3.599-3.322-5.915-.78-3.36-1.142-5.913-1.087-7.659z" clip-rule="evenodd"/><path fill="url(#DmN4I0ykfqEq7fYGIeOah)" d="M23.698 6.886c-2.72 2.15-4.743 5.756-6.068 10.819-1.987 7.594-2.203 14.597-1.502 18.67 1.36 7.897 8.404 10.894 15.63 7.219 4.447-2.262 6.3-7.117 6.201-12.387-.102-5.457-10.647-11.642-12.514-16.196-1.245-3.036-1.827-5.744-1.746-8.125z" clip-rule="evenodd"/><path fill="url(#HoZCUhhJW-E9iXqIC2wKL)" d="M30.596 21.123c3.262 4.185 3.974 7.097 2.133 8.739-2.76 2.462-9.51 4.068-13.71 1.09-2.8-1.986-3.86-6.245-3.178-12.778a58.666 58.666 0 0 0-2.932 7.335c-.798 2.477-1.031 5.068-.7 7.775 1.002 2.025 3.435 3.377 7.301 4.057 5.8 1.02 11.288.516 14.97-1.34 2.456-1.239 3.617-2.47 3.485-3.697.088-1.811-.47-3.535-1.676-5.172-1.206-1.638-3.103-3.64-5.694-6.009z" clip-rule="evenodd"/><path fill="url(#Hmm9YDmUdV4LNNvUZ6aFX)" d="M17.845 16.945c-.027 3.022.75 5.895 2.332 8.618 2.372 4.086 5.14 8.122 9.284 11.468 2.762 2.231 4.969 2.952 6.62 2.162-1.356 2.429-2.799 3.619-4.328 3.57-2.292-.072-5.088-1.075-9.568-6.458-2.986-3.589-5.03-6.983-6.13-10.184.175-1.27.36-2.535.556-3.795.195-1.26.607-3.053 1.234-5.38z" clip-rule="evenodd"/><path fill="url(#2Fde2-1dkf5Tp3RpmeD33)" d="M24.853 21.092c.253 2.462 1.211 6.4 0 9.022s-6.807 7.358-5.262 11.53c1.544 4.173 5.308 3.237 7.67 1.314 2.36-1.923 3.624-5.05 3.904-7.249.28-2.199-.67-6.43-.979-10.11-.206-2.453-.066-4.557.42-6.31l-.724-.91-4.258-1.262c-.683 1.01-.94 2.334-.771 3.975z" clip-rule="evenodd"/><path fill="url(#qRDWqfxycXK2HXxUYR5rb)" d="M26.373 8.899c-1.378.582-2.684 1.736-3.918 3.462-1.85 2.588-2.792 4.14-2.094 9.27.465 3.421.797 6.568.998 9.441l5.965-17.33c-.22-.882-.402-1.68-.548-2.392a36.64 36.64 0 0 1-.403-2.451z" clip-rule="evenodd"/><path fill="#330A4C" fill-opacity=".316" d="M27.312 13.708c-1.514.884-2.687 2.694-3.52 5.432-.832 2.737-1.594 6.564-2.284 11.48.921-3.127 1.532-5.391 1.833-6.794.451-2.104.606-5.08 1.804-7.1.8-1.346 1.521-2.352 2.167-3.018z" clip-rule="evenodd"/><path fill="#fff" d="M20.302 43.038c2.491.356 3.794.673 3.908.95.171.415-.315.795-1.698.54-.922-.17-1.66-.667-2.21-1.49z" clip-rule="evenodd"/><path fill="#EDEDED" fill-opacity=".603" d="M21.553 8.899a32.185 32.185 0 0 0-3.562 5.207c-1.005 1.834-1.723 3.203-2.154 4.105-.134.673-.199 1.667-.196 2.98.004 1.314.117 2.774.341 4.381a35.232 35.232 0 0 1 1.802-9.165c1.004-2.963 2.26-5.466 3.77-7.508z" clip-rule="evenodd"/><defs><linearGradient id="v2x9FuSEjwcJDHXVeyrvs" x1="25.557" x2="24.17" y1="8.626" y2="45.547" gradientUnits="userSpaceOnUse"><stop stop-color="#D9D8DC"/><stop offset="1" stop-color="#fff" stop-opacity=".385"/></linearGradient><linearGradient id="1vou02EsxXc7L6lDr07jS" x1="26.184" x2="11.682" y1="8.617" y2="40.4" gradientUnits="userSpaceOnUse"><stop stop-color="#8D67AF" stop-opacity=".672"/><stop offset="1" stop-color="#9F8DAF"/></linearGradient><linearGradient id="DmN4I0ykfqEq7fYGIeOah" x1="27.803" x2="27.803" y1="18.914" y2="44.474" gradientUnits="userSpaceOnUse"><stop stop-color="#26053D" stop-opacity=".762"/><stop offset="1" stop-color="#B7B4B4" stop-opacity=".278"/></linearGradient><linearGradient id="HoZCUhhJW-E9iXqIC2wKL" x1="14.689" x2="21.196" y1="20.643" y2="37.879" gradientUnits="userSpaceOnUse"><stop stop-color="#91739F" stop-opacity=".46"/><stop offset="1" stop-color="#32054F" stop-opacity=".54"/></linearGradient><linearGradient id="Hmm9YDmUdV4LNNvUZ6aFX" x1="32.081" x2="14.188" y1="41.838" y2="27.012" gradientUnits="userSpaceOnUse"><stop stop-color="#463D49" stop-opacity=".331"/><stop offset="1" stop-color="#340A50" stop-opacity=".821"/></linearGradient><linearGradient id="2Fde2-1dkf5Tp3RpmeD33" x1="28.403" x2="15.784" y1="19.155" y2="38.353" gradientUnits="userSpaceOnUse"><stop stop-color="#715383" stop-opacity=".145"/><stop offset="1" stop-color="#F4F4F4" stop-opacity=".234"/></linearGradient><linearGradient id="qRDWqfxycXK2HXxUYR5rb" x1="29.61" x2="20.673" y1="25.011" y2="24.465" gradientUnits="userSpaceOnUse"><stop stop-color="#A5A1A8" stop-opacity=".356"/><stop offset="1" stop-color="#370C50" stop-opacity=".582"/></linearGradient></defs></g></svg></svg><g transform="translate(-18.633331298828125, 68)"><g transform="translate(0,-4)"><text><tspan dy="19" x="50.64166259765625" text-anchor="middle"><tspan text-decoration="none" font-style="normal" font-size="14px" font-weight="normal" style="font-weight: normal;" fill="#000000">Schedule Logic</tspan></tspan></text></g></g></g></g><g id="icn_H9AEHaOZajDGAJ1jnrCWN" transform="translate(3424,3024)"><g transform="translate(0,0)"><path d="&#xA;    M 0, 21.248&#xA;    C 0, 3.750272 3.750272, 0 21.248, 0&#xA;    L 42.751999999999995, 0&#xA;    C 60.249728, 0 64, 3.750272 64, 21.248&#xA;    L 64, 42.751999999999995&#xA;    C 64, 60.249728 60.249728, 64 42.751999999999995, 64&#xA;    L 21.248, 64&#xA;    C 3.750272, 64 0, 60.249728 0, 42.751999999999995&#xA;    L 0, 21.248&#xA;  " stroke-width="2" stroke="#c5ddf0" fill="#e9f2f9"/></g><rect width="74" height="74" x="-5" y="-5" fill="transparent"/><rect width="54" height="54" x="5" y="5" fill="transparent"/><g><svg viewBox="0 0 50 50" width="40" height="40" x="12" y="12"><svg id="1YOiXxNj6ojEoIYx576Jv" xmlns="http://www.w3.org/2000/svg" viewBox="4.39 4.76 41.16 41.6" width="50" height="50"><g fill="none" fill-rule="evenodd"><path fill="url(#N4o70QtpK909zrZZ82lmn)" d="M24.765 5.577c-1.632.008-3.19.147-4.56.39-4.039.713-4.772 2.206-4.772 4.96v3.637h9.543v1.212H11.852c-2.774 0-5.202 1.667-5.962 4.838-.876 3.635-.915 5.903 0 9.699.679 2.825 2.299 4.838 5.072 4.838h3.281v-4.36c0-3.15 2.725-5.928 5.961-5.928h9.532c2.653 0 4.771-2.185 4.771-4.85v-9.086c0-2.586-2.181-4.529-4.771-4.96a29.763 29.763 0 0 0-4.972-.39zm-5.161 2.925c.986 0 1.79.819 1.79 1.824a1.803 1.803 0 0 1-1.79 1.813c-.99 0-1.79-.81-1.79-1.813 0-1.005.8-1.824 1.79-1.824z"/><path fill="url(#5phGZvE9IPXlsvW_Td8Si)" d="M35.697 15.776v4.238c0 3.285-2.785 6.05-5.961 6.05h-9.532c-2.61 0-4.771 2.235-4.771 4.85V40c0 2.586 2.249 4.107 4.771 4.85 3.021.888 5.918 1.048 9.532 0 2.402-.696 4.771-2.096 4.771-4.85v-3.637h-9.531v-1.212h14.303c2.773 0 3.807-1.935 4.771-4.838.996-2.99.954-5.864 0-9.699-.685-2.76-1.994-4.838-4.771-4.838h-3.582zm-5.36 23.012c.989 0 1.79.81 1.79 1.813 0 1.006-.801 1.824-1.79 1.824-.986 0-1.791-.818-1.791-1.824 0-1.003.805-1.813 1.79-1.813z"/><defs><linearGradient id="N4o70QtpK909zrZZ82lmn" x1="5.219" x2="27.223" y1="5.577" y2="24.328" gradientUnits="userSpaceOnUse"><stop stop-color="#5A9FD4"/><stop offset="1" stop-color="#306998"/></linearGradient><linearGradient id="5phGZvE9IPXlsvW_Td8Si" x1="30.107" x2="22.213" y1="40.295" y2="29.233" gradientUnits="userSpaceOnUse"><stop stop-color="#FFD43B"/><stop offset="1" stop-color="#FFE873"/></linearGradient></defs></g></svg></svg><g transform="translate(8.600006103515625, 68)"><g transform="translate(0,-4)"><text><tspan dy="19" x="23.399993896484375" text-anchor="middle"><tspan text-decoration="none" font-style="normal" font-size="14px" font-weight="normal" style="font-weight: normal;" fill="#000000">Worker</tspan></tspan></text></g></g></g></g><g id="icn_rURRc8WJK4SriGt1lewnj" transform="translate(3424,2880)"><g transform="translate(0,0)"><path d="&#xA;    M 0, 21.248&#xA;    C 0, 3.750272 3.750272, 0 21.248, 0&#xA;    L 42.751999999999995, 0&#xA;    C 60.249728, 0 64, 3.750272 64, 21.248&#xA;    L 64, 42.751999999999995&#xA;    C 64, 60.249728 60.249728, 64 42.751999999999995, 64&#xA;    L 21.248, 64&#xA;    C 3.750272, 64 0, 60.249728 0, 42.751999999999995&#xA;    L 0, 21.248&#xA;  " stroke-width="2" stroke="#f9cdeb" fill="#fdedf8"/></g><rect width="74" height="74" x="-5" y="-5" fill="transparent"/><rect width="54" height="54" x="5" y="5" fill="transparent"/><g><svg viewBox="0 0 50 50" width="40" height="40" x="12" y="12"><svg id="1R48c0LFmgcGxMtisbOsD" xmlns="http://www.w3.org/2000/svg" viewBox="6.2 4.2 37.16 41.53" width="50" height="50"><g fill="#E10098" fill-rule="evenodd"><path d="m10.239 35.485-1.467-.848L25.13 6.306l1.467.848L10.24 35.485Z"/><path d="M8.435 32.373h32.718v1.696H8.435v-1.696Z"/><path d="M25.447 42.776 9.083 33.328l.848-1.467 16.364 9.448-.848 1.467Zm14.217-24.628L23.298 8.702l.848-1.467 16.365 9.448-.847 1.465Z"/><path d="m9.935 18.143-.848-1.466 16.38-9.451.848 1.467-16.38 9.45Z"/><path d="M39.362 35.485 23.002 7.15l1.467-.849 16.36 28.334-1.467.849ZM9.732 15.55h1.697v18.897H9.732V15.55Zm28.439 0h1.696v18.897H38.17V15.55Z"/><path d="m25.16 42.057-.74-1.282 14.233-8.218.74 1.283-14.233 8.217Z"/><path d="M42.113 35a3.575 3.575 0 0 1-4.872 1.308 3.575 3.575 0 0 1-1.308-4.872 3.575 3.575 0 0 1 4.872-1.308A3.553 3.553 0 0 1 42.112 35h.001ZM13.655 18.565a3.575 3.575 0 0 1-4.872 1.308A3.575 3.575 0 0 1 7.475 15a3.575 3.575 0 0 1 4.872-1.309 3.575 3.575 0 0 1 1.308 4.873ZM7.485 35a3.575 3.575 0 0 1 1.309-4.872 3.575 3.575 0 0 1 4.872 1.308 3.575 3.575 0 0 1-1.308 4.872c-1.716.98-3.893.4-4.872-1.307V35Zm28.459-16.434a3.575 3.575 0 0 1 1.308-4.872 3.575 3.575 0 0 1 4.872 1.308 3.575 3.575 0 0 1-1.308 4.872 3.575 3.575 0 0 1-4.872-1.308ZM24.799 45a3.565 3.565 0 1 1 3.566-3.564A3.575 3.575 0 0 1 24.8 45Zm0-32.87a3.56 3.56 0 0 1-3.565-3.566 3.563 3.563 0 0 1 5.348-3.087 3.565 3.565 0 0 1-1.781 6.651"/></g></svg></svg><g transform="translate(3.2833404541015625, 68)"><g transform="translate(0,-4)"><text><tspan dy="19" x="28.716659545898438" text-anchor="middle"><tspan text-decoration="none" font-style="normal" font-size="14px" font-weight="normal" style="font-weight: normal;" fill="#000000">Exp. 627</tspan></tspan></text></g></g></g></g><g id="icn_codB6x1YHDAq1zLGQqYyc" transform="translate(3424,2736)"><g transform="translate(0,0)"><path d="&#xA;    M 0, 21.248&#xA;    C 0, 3.750272 3.750272, 0 21.248, 0&#xA;    L 42.751999999999995, 0&#xA;    C 60.249728, 0 64, 3.750272 64, 21.248&#xA;    L 64, 42.751999999999995&#xA;    C 64, 60.249728 60.249728, 64 42.751999999999995, 64&#xA;    L 21.248, 64&#xA;    C 3.750272, 64 0, 60.249728 0, 42.751999999999995&#xA;    L 0, 21.248&#xA;  " stroke-width="2" stroke="#bcdefb" fill="#e6f3fe"/></g><rect width="74" height="74" x="-5" y="-5" fill="transparent"/><rect width="54" height="54" x="5" y="5" fill="transparent"/><g><svg viewBox="0 0 50 50" width="40" height="40" x="12" y="12"><svg id="u3HHYLkTjmG5YdNzSI04H" xmlns="http://www.w3.org/2000/svg" viewBox="4.2 6.95 41.53 37.22" width="50" height="50"><g fill="#61DAFB" fill-rule="evenodd"><path d="M45 25.581c0-2.65-3.318-5.16-8.406-6.718 1.174-5.186.652-9.311-1.647-10.632-.53-.31-1.15-.457-1.826-.457v1.819c.375 0 .676.073.93.211 1.108.637 1.589 3.058 1.214 6.173-.09.766-.236 1.573-.416 2.397a39.511 39.511 0 0 0-5.177-.89 39.778 39.778 0 0 0-3.392-4.076c2.658-2.47 5.153-3.824 6.849-3.824V7.766c-2.242 0-5.177 1.598-8.145 4.37C22.016 9.381 19.08 7.8 16.839 7.8v1.818c1.687 0 4.19 1.345 6.848 3.8a38.51 38.51 0 0 0-3.367 4.068 38.082 38.082 0 0 0-5.185.897 24.587 24.587 0 0 1-.424-2.365c-.384-3.114.09-5.536 1.19-6.18.245-.147.563-.212.938-.212V7.807c-.685 0-1.305.147-1.843.457-2.291 1.32-2.805 5.438-1.623 10.607C8.303 20.436 5 22.939 5 25.58c0 2.65 3.318 5.161 8.406 6.718-1.174 5.186-.652 9.311 1.647 10.632.53.31 1.15.457 1.835.457 2.242 0 5.177-1.598 8.145-4.37 2.967 2.756 5.903 4.337 8.145 4.337.685 0 1.304-.146 1.842-.456 2.291-1.321 2.805-5.439 1.623-10.608C41.698 30.734 45 28.223 45 25.581zm-10.616-5.438a36.697 36.697 0 0 1-1.1 3.22 38.6 38.6 0 0 0-1.068-1.956 44.246 44.246 0 0 0-1.174-1.908c1.157.171 2.274.383 3.342.644zm-3.734 8.683a43.437 43.437 0 0 1-1.965 3.115 42.462 42.462 0 0 1-7.354.008 44.968 44.968 0 0 1-1.973-3.098 42.514 42.514 0 0 1-1.696-3.245 43.437 43.437 0 0 1 3.653-6.368 42.422 42.422 0 0 1 7.354-.008c.677.97 1.337 2.005 1.973 3.098a42.514 42.514 0 0 1 1.696 3.245 45.66 45.66 0 0 1-1.688 3.253zm2.634-1.06c.44 1.093.815 2.185 1.125 3.245-1.068.261-2.193.481-3.36.652.4-.627.8-1.272 1.175-1.932.375-.652.725-1.313 1.06-1.965zm-8.268 8.7a33.627 33.627 0 0 1-2.266-2.61c.733.033 1.484.058 2.242.058.766 0 1.524-.017 2.266-.057a31.828 31.828 0 0 1-2.242 2.609zm-6.066-4.803a36.786 36.786 0 0 1-3.343-.644 36.73 36.73 0 0 1 1.101-3.22c.334.652.685 1.304 1.068 1.957.383.652.775 1.288 1.174 1.907zm6.025-16.966a33.606 33.606 0 0 1 2.267 2.609A50.492 50.492 0 0 0 25 17.248c-.766 0-1.525.017-2.267.058a31.828 31.828 0 0 1 2.242-2.61zm-6.033 4.802a45.115 45.115 0 0 0-2.234 3.889 34.936 34.936 0 0 1-1.125-3.245 39.603 39.603 0 0 1 3.36-.644zm-7.379 10.208C8.677 28.475 6.81 26.86 6.81 25.58c0-1.28 1.867-2.903 4.753-4.126.702-.301 1.468-.57 2.259-.823a39.16 39.16 0 0 0 1.834 4.965 38.61 38.61 0 0 0-1.81 4.941 24.796 24.796 0 0 1-2.283-.831zm4.387 11.65c-1.109-.635-1.59-3.057-1.215-6.171.09-.767.236-1.574.416-2.397 1.598.391 3.343.693 5.177.888a39.765 39.765 0 0 0 3.392 4.077c-2.658 2.47-5.153 3.824-6.849 3.824-.367-.008-.677-.082-.921-.22zm19.34-6.212c.383 3.114-.09 5.536-1.19 6.18-.246.147-.564.212-.939.212-1.687 0-4.19-1.345-6.848-3.8a38.52 38.52 0 0 0 3.367-4.068 38.082 38.082 0 0 0 5.186-.897c.187.824.334 1.615.423 2.373zm3.139-5.438c-.702.301-1.468.57-2.259.823a39.146 39.146 0 0 0-1.835-4.965 38.595 38.595 0 0 0 1.81-4.941c.808.253 1.574.53 2.292.831 2.886 1.232 4.753 2.846 4.753 4.126-.008 1.28-1.875 2.903-4.761 4.126z"/><path d="M24.992 29.307a3.726 3.726 0 1 0 0-7.452 3.726 3.726 0 0 0 0 7.452z"/></g></svg></svg><g transform="translate(24.966659545898438, 68)"><g transform="translate(0,-4)"><text><tspan dy="19" x="7.0416717529296875" text-anchor="middle"><tspan text-decoration="none" font-style="normal" font-size="14px" font-weight="normal" style="font-weight: normal;" fill="#000000">UI</tspan></tspan></text></g></g></g></g><g id="icn_Ze7L3BK5WszxIIrzY8OBZ" transform="translate(3696,2880)"><g transform="translate(0,0)"><path d="&#xA;    M 0, 21.248&#xA;    C 0, 3.750272 3.750272, 0 21.248, 0&#xA;    L 42.751999999999995, 0&#xA;    C 60.249728, 0 64, 3.750272 64, 21.248&#xA;    L 64, 42.751999999999995&#xA;    C 64, 60.249728 60.249728, 64 42.751999999999995, 64&#xA;    L 21.248, 64&#xA;    C 3.750272, 64 0, 60.249728 0, 42.751999999999995&#xA;    L 0, 21.248&#xA;  " stroke-width="2" stroke="#d8dadd" fill="#f0f1f2"/></g><rect width="74" height="74" x="-5" y="-5" fill="transparent"/><rect width="54" height="54" x="5" y="5" fill="transparent"/><g><svg viewBox="0 0 50 50" width="40" height="40" x="12" y="12"><svg id="EIiJuSGB7XIBZQJXKstiE" xmlns="http://www.w3.org/2000/svg" viewBox="4.33 12.2 41.6 26.66" width="50" height="50"><path fill="#232F3D" fill-rule="evenodd" d="M34.765 31.023 31.5 34.286V23.727h-1.817v10.459l-3.126-3.178-1.296 1.275 4.72 4.796c.171.173.403.271.644.272h.004a.91.91 0 0 0 .642-.266l4.778-4.777-1.284-1.285zm-11.12-1.876 1.284-1.285-4.777-4.777a.904.904 0 0 0-.643-.266h-.003a.907.907 0 0 0-.644.271l-4.721 4.796 1.295 1.273 3.127-3.175v12.094h1.817V25.882l3.264 3.265zm-1.833 8.947 6.42.006.002-1.817-6.42-.006-.002 1.817zm23.343-7.67c0 2.26-.685 4.087-2.038 5.429-2.227 2.212-5.457 2.258-5.712 2.258h-.01l-4.328-.005.002-1.817 4.332.004c.036 0 2.723-.019 4.446-1.739.99-.988 1.49-2.377 1.49-4.13 0-1.074-.294-2.681-2.843-4.243a8.806 8.806 0 0 0-3.07-1.168.908.908 0 0 1-.756-1.004c-.161-1.904-1.053-3.236-2.456-3.66-1.213-.368-2.51.061-3.311 1.093a.896.896 0 0 1-.855.342.906.906 0 0 1-.714-.583c-.562-1.512-1.373-2.782-2.413-3.776-1.28-1.224-4.797-3.86-9.767-1.852-2.849 1.151-5.082 4.456-5.082 7.525 0 .343.022.686.065 1.02a.91.91 0 0 1-.743 1.01c-1.676.42-4.42 1.686-4.42 5.449 0 2.857 1.635 4.437 3.006 5.26.468.28 1.009.43 1.563.43l5.59.005-.002 1.818-5.589-.006a4.862 4.862 0 0 1-2.498-.69c-1.451-.87-3.887-2.913-3.887-6.817 0-3.375 1.893-5.948 5.109-7.013a10.003 10.003 0 0 1-.011-.465c0-3.82 2.674-7.78 6.219-9.21 4.13-1.67 8.505-.835 11.704 2.224a11.275 11.275 0 0 1 2.325 3.212 4.816 4.816 0 0 1 4.238-.716c1.99.604 3.337 2.36 3.683 4.756 1.03.256 2.099.701 3.022 1.267 2.497 1.53 3.711 3.425 3.711 5.792z" clip-rule="evenodd"/></svg></svg><g transform="translate(6.149993896484375, 68)"><g transform="translate(0,-4)"><text><tspan dy="19" x="25.85833740234375" text-anchor="middle"><tspan text-decoration="none" font-style="normal" font-size="14px" font-weight="normal" style="font-weight: normal;" fill="#000000">Internet</tspan></tspan></text></g></g></g></g><g id="icn_umK2GVaF03SuWljO3OA3P" transform="translate(3120,2736)"><g transform="translate(0,0)"><path d="&#xA;    M 0, 21.248&#xA;    C 0, 3.750272 3.750272, 0 21.248, 0&#xA;    L 42.751999999999995, 0&#xA;    C 60.249728, 0 64, 3.750272 64, 21.248&#xA;    L 64, 42.751999999999995&#xA;    C 64, 60.249728 60.249728, 64 42.751999999999995, 64&#xA;    L 21.248, 64&#xA;    C 3.750272, 64 0, 60.249728 0, 42.751999999999995&#xA;    L 0, 21.248&#xA;  " stroke-width="2" stroke="#ded8e2" fill="#f3f0f4"/></g><rect width="74" height="74" x="-5" y="-5" fill="transparent"/><rect width="54" height="54" x="5" y="5" fill="transparent"/><g><svg viewBox="0 0 50 50" width="40" height="40" x="12" y="12"><svg id="jFCeoSiXJzfsGWnfsHpD1" xmlns="http://www.w3.org/2000/svg" viewBox="11.2 4.76 27.54 41.6" width="50" height="50"><g fill="none" fill-rule="evenodd"><path fill="url(#oIaNpX5LqeJE7JtZZ0UfG)" d="M26.117 5.678c-2.906 1.03-5.711 4.036-8.416 9.02-4.057 7.474-9.296 18.095-2.081 26.505 3.338 3.89 8.849 6.187 16.081 2.55 5.81-2.922 7.427-11.306 5.34-15.245-4.302-8.127-8.668-10.131-9.837-15.171-.78-3.36-1.142-5.913-1.087-7.66z" clip-rule="evenodd"/><path fill="url(#kXpBD5uzxm0kfSS2OTl1W)" d="M26.117 5.577c-2.921 1.04-5.726 4.047-8.416 9.02-4.035 7.458-9.297 18.096-2.082 26.505 3.338 3.89 8.779 5.148 11.797 2.84 1.968-1.504 3.307-2.938 4.078-5.959.859-3.364.2-7.893-.252-9.973-.571-2.633-.758-5.522-.56-8.669l-.156-.19c-1.572-1.923-2.785-3.599-3.322-5.915-.78-3.36-1.142-5.913-1.087-7.659z" clip-rule="evenodd"/><path fill="url(#BB8Xat0wCiaMTwkB_Upof)" d="M23.698 6.886c-2.72 2.15-4.743 5.756-6.068 10.819-1.987 7.594-2.203 14.597-1.502 18.67 1.36 7.897 8.404 10.894 15.63 7.219 4.447-2.262 6.3-7.117 6.201-12.387-.102-5.457-10.647-11.642-12.514-16.196-1.245-3.036-1.827-5.744-1.746-8.125z" clip-rule="evenodd"/><path fill="url(#jQkCAATrqQ8K2NCeWFtpT)" d="M30.596 21.123c3.262 4.185 3.974 7.097 2.133 8.739-2.76 2.462-9.51 4.068-13.71 1.09-2.8-1.986-3.86-6.245-3.178-12.778a58.666 58.666 0 0 0-2.932 7.335c-.798 2.477-1.031 5.068-.7 7.775 1.002 2.025 3.435 3.377 7.301 4.057 5.8 1.02 11.288.516 14.97-1.34 2.456-1.239 3.617-2.47 3.485-3.697.088-1.811-.47-3.535-1.676-5.172-1.206-1.638-3.103-3.64-5.694-6.009z" clip-rule="evenodd"/><path fill="url(#UpDDq5XpcCGF8VmHE-DUz)" d="M17.845 16.945c-.027 3.022.75 5.895 2.332 8.618 2.372 4.086 5.14 8.122 9.284 11.468 2.762 2.231 4.969 2.952 6.62 2.162-1.356 2.429-2.799 3.619-4.328 3.57-2.292-.072-5.088-1.075-9.568-6.458-2.986-3.589-5.03-6.983-6.13-10.184.175-1.27.36-2.535.556-3.795.195-1.26.607-3.053 1.234-5.38z" clip-rule="evenodd"/><path fill="url(#-mRs0DltS6VUE-9JvQXwY)" d="M24.853 21.092c.253 2.462 1.211 6.4 0 9.022s-6.807 7.358-5.262 11.53c1.544 4.173 5.308 3.237 7.67 1.314 2.36-1.923 3.624-5.05 3.904-7.249.28-2.199-.67-6.43-.979-10.11-.206-2.453-.066-4.557.42-6.31l-.724-.91-4.258-1.262c-.683 1.01-.94 2.334-.771 3.975z" clip-rule="evenodd"/><path fill="url(#OzDZImzl1B2-JZ5ei9rRQ)" d="M26.373 8.899c-1.378.582-2.684 1.736-3.918 3.462-1.85 2.588-2.792 4.14-2.094 9.27.465 3.421.797 6.568.998 9.441l5.965-17.33c-.22-.882-.402-1.68-.548-2.392a36.64 36.64 0 0 1-.403-2.451z" clip-rule="evenodd"/><path fill="#330A4C" fill-opacity=".316" d="M27.312 13.708c-1.514.884-2.687 2.694-3.52 5.432-.832 2.737-1.594 6.564-2.284 11.48.921-3.127 1.532-5.391 1.833-6.794.451-2.104.606-5.08 1.804-7.1.8-1.346 1.521-2.352 2.167-3.018z" clip-rule="evenodd"/><path fill="#fff" d="M20.302 43.038c2.491.356 3.794.673 3.908.95.171.415-.315.795-1.698.54-.922-.17-1.66-.667-2.21-1.49z" clip-rule="evenodd"/><path fill="#EDEDED" fill-opacity=".603" d="M21.553 8.899a32.185 32.185 0 0 0-3.562 5.207c-1.005 1.834-1.723 3.203-2.154 4.105-.134.673-.199 1.667-.196 2.98.004 1.314.117 2.774.341 4.381a35.232 35.232 0 0 1 1.802-9.165c1.004-2.963 2.26-5.466 3.77-7.508z" clip-rule="evenodd"/><defs><linearGradient id="oIaNpX5LqeJE7JtZZ0UfG" x1="25.557" x2="24.17" y1="8.626" y2="45.547" gradientUnits="userSpaceOnUse"><stop stop-color="#D9D8DC"/><stop offset="1" stop-color="#fff" stop-opacity=".385"/></linearGradient><linearGradient id="kXpBD5uzxm0kfSS2OTl1W" x1="26.184" x2="11.682" y1="8.617" y2="40.4" gradientUnits="userSpaceOnUse"><stop stop-color="#8D67AF" stop-opacity=".672"/><stop offset="1" stop-color="#9F8DAF"/></linearGradient><linearGradient id="BB8Xat0wCiaMTwkB_Upof" x1="27.803" x2="27.803" y1="18.914" y2="44.474" gradientUnits="userSpaceOnUse"><stop stop-color="#26053D" stop-opacity=".762"/><stop offset="1" stop-color="#B7B4B4" stop-opacity=".278"/></linearGradient><linearGradient id="jQkCAATrqQ8K2NCeWFtpT" x1="14.689" x2="21.196" y1="20.643" y2="37.879" gradientUnits="userSpaceOnUse"><stop stop-color="#91739F" stop-opacity=".46"/><stop offset="1" stop-color="#32054F" stop-opacity=".54"/></linearGradient><linearGradient id="UpDDq5XpcCGF8VmHE-DUz" x1="32.081" x2="14.188" y1="41.838" y2="27.012" gradientUnits="userSpaceOnUse"><stop stop-color="#463D49" stop-opacity=".331"/><stop offset="1" stop-color="#340A50" stop-opacity=".821"/></linearGradient><linearGradient id="-mRs0DltS6VUE-9JvQXwY" x1="28.403" x2="15.784" y1="19.155" y2="38.353" gradientUnits="userSpaceOnUse"><stop stop-color="#715383" stop-opacity=".145"/><stop offset="1" stop-color="#F4F4F4" stop-opacity=".234"/></linearGradient><linearGradient id="OzDZImzl1B2-JZ5ei9rRQ" x1="29.61" x2="20.673" y1="25.011" y2="24.465" gradientUnits="userSpaceOnUse"><stop stop-color="#A5A1A8" stop-opacity=".356"/><stop offset="1" stop-color="#370C50" stop-opacity=".582"/></linearGradient></defs></g></svg></svg><g transform="translate(17.783340454101562, 68)"><g transform="translate(0,-4)"><text><tspan dy="19" x="14.216659545898438" text-anchor="middle"><tspan text-decoration="none" font-style="normal" font-size="14px" font-weight="normal" style="font-weight: normal;" fill="#000000">Eliot</tspan></tspan></text></g></g></g></g><g transform="translate(3520, 2864)"><g transform="translate(0, 0)"><g transform="translate(0,-4)"><text y="7"><tspan dy="18" x="72" text-anchor="middle"><tspan text-decoration="underline" font-style="normal" font-size="13px" font-weight="normal" style="font-weight: normal;" fill="hsl(211, 100%, 43.2%)">https://</tspan><tspan text-decoration="underline" font-style="normal" font-size="13px" font-weight="bold" style="font-weight: bold;" fill="hsl(211, 100%, 43.2%)">*.valiot.app</tspan></tspan></text></g></g><rect x="-5" y="-5" width="149" height="37" fill="none" stroke="none"/><rect x="5" y="5" width="139" height="27" fill="none" stroke="none"/></g><g transform="translate(3520, 2720)"><g transform="translate(0, 0)"><g transform="translate(0,-4)"><text y="7"><tspan dy="18" x="72" text-anchor="middle"><tspan text-decoration="underline" font-style="normal" font-size="13px" font-weight="normal" style="font-weight: normal;" fill="hsl(211, 100%, 43.2%)">https://</tspan><tspan text-decoration="underline" font-style="normal" font-size="13px" font-weight="bold" style="font-weight: bold;" fill="hsl(211, 100%, 43.2%)">*.valiot.io</tspan></tspan></text></g></g><rect x="-5" y="-5" width="149" height="37" fill="none" stroke="none"/><rect x="5" y="5" width="139" height="27" fill="none" stroke="none"/></g><g id="arr_2fXhn0QBvdWEj7xQFcCxn"><marker id="arrowhead_arr_2fXhn0QBvdWEj7xQFcCxn" refX="1" refY="3" orient="auto" markerWidth="8" markerHeight="8"><path d="M2.91922181,1.64495663 L4.49787879,4.07365967 C4.64837316,4.30518948 4.58268096,4.61488128 4.35115115,4.76537565 C4.27004602,4.81809399 4.17538993,4.84615385 4.07865698,4.84615385 L0.921343022,4.84615385 C0.645200647,4.84615385 0.421343022,4.62229622 0.421343022,4.34615385 C0.421343022,4.24942089 0.44940288,4.1547648 0.502121214,4.07365967 L2.08077819,1.64495663 C2.23127257,1.41342682 2.54096436,1.34773462 2.77249418,1.498229 C2.83112579,1.53633954 2.88111126,1.58632502 2.91922181,1.64495663 Z" fill="hsl(0, 0%, 52.3%)" transform="translate(2.500000, 2.923077) rotate(90.000000) translate(-2.500000, -2.923077)"/></marker><marker id="arrowhead_src_arr_2fXhn0QBvdWEj7xQFcCxn" refX="4" refY="3" orient="auto" markerWidth="8" markerHeight="8"><path d="M2.91922181,1.64495663 L4.49787879,4.07365967 C4.64837316,4.30518948 4.58268096,4.61488128 4.35115115,4.76537565 C4.27004602,4.81809399 4.17538993,4.84615385 4.07865698,4.84615385 L0.921343022,4.84615385 C0.645200647,4.84615385 0.421343022,4.62229622 0.421343022,4.34615385 C0.421343022,4.24942089 0.44940288,4.1547648 0.502121214,4.07365967 L2.08077819,1.64495663 C2.23127257,1.41342682 2.54096436,1.34773462 2.77249418,1.498229 C2.83112579,1.53633954 2.88111126,1.58632502 2.91922181,1.64495663 Z" fill="hsl(0, 0%, 52.3%)" transform="translate(2.500000, 2.923077) rotate(270.000000) translate(-2.500000, -2.923077)"/></marker><path id="arr_2fXhn0QBvdWEj7xQFcCxn_path" style="stroke-width: 3px; stroke: rgb(133, 133, 133);" stroke-linecap="round" marker-start="url(#arrowhead_src_arr_2fXhn0QBvdWEj7xQFcCxn)" marker-end="url(#arrowhead_arr_2fXhn0QBvdWEj7xQFcCxn)" d="M 2972 2920 L 2996 2920  " fill="none" pointer-events="stroke" stroke-linejoin="round"/><path style="stroke-width: 4px; stroke: transparent;" d="M 2972 2920 L 2996 2920  " fill="none" pointer-events="stroke"/></g><g id="arr_4jfmHhkgbcDqrY0vpzSIb"><marker id="arrowhead_arr_4jfmHhkgbcDqrY0vpzSIb" refX="1" refY="3" orient="auto" markerWidth="8" markerHeight="8"><path d="M2.91922181,1.64495663 L4.49787879,4.07365967 C4.64837316,4.30518948 4.58268096,4.61488128 4.35115115,4.76537565 C4.27004602,4.81809399 4.17538993,4.84615385 4.07865698,4.84615385 L0.921343022,4.84615385 C0.645200647,4.84615385 0.421343022,4.62229622 0.421343022,4.34615385 C0.421343022,4.24942089 0.44940288,4.1547648 0.502121214,4.07365967 L2.08077819,1.64495663 C2.23127257,1.41342682 2.54096436,1.34773462 2.77249418,1.498229 C2.83112579,1.53633954 2.88111126,1.58632502 2.91922181,1.64495663 Z" fill="hsl(0, 0%, 52.3%)" transform="translate(2.500000, 2.923077) rotate(90.000000) translate(-2.500000, -2.923077)"/></marker><path id="arr_4jfmHhkgbcDqrY0vpzSIb_path" style="stroke-width: 3px; stroke: rgb(133, 133, 133);" stroke-linecap="round" marker-end="url(#arrowhead_arr_4jfmHhkgbcDqrY0vpzSIb)" d="M 3419 2920 L 3340 2920  " fill="none" pointer-events="stroke" stroke-linejoin="round"/><path style="stroke-width: 4px; stroke: transparent;" d="M 3419 2920 L 3340 2920  " fill="none" pointer-events="stroke"/></g><g id="arr_5iqrXt8LOEfwD8s9sNBDi"><marker id="arrowhead_arr_5iqrXt8LOEfwD8s9sNBDi" refX="1" refY="3" orient="auto" markerWidth="8" markerHeight="8"><path d="M2.91922181,1.64495663 L4.49787879,4.07365967 C4.64837316,4.30518948 4.58268096,4.61488128 4.35115115,4.76537565 C4.27004602,4.81809399 4.17538993,4.84615385 4.07865698,4.84615385 L0.921343022,4.84615385 C0.645200647,4.84615385 0.421343022,4.62229622 0.421343022,4.34615385 C0.421343022,4.24942089 0.44940288,4.1547648 0.502121214,4.07365967 L2.08077819,1.64495663 C2.23127257,1.41342682 2.54096436,1.34773462 2.77249418,1.498229 C2.83112579,1.53633954 2.88111126,1.58632502 2.91922181,1.64495663 Z" fill="hsl(0, 0%, 52.3%)" transform="translate(2.500000, 2.923077) rotate(90.000000) translate(-2.500000, -2.923077)"/></marker><path id="arr_5iqrXt8LOEfwD8s9sNBDi_path" style="stroke-width: 3px; stroke: rgb(133, 133, 133);" stroke-linecap="round" marker-end="url(#arrowhead_arr_5iqrXt8LOEfwD8s9sNBDi)" d="M 3040 3019 L 3040 2997  " fill="none" pointer-events="stroke" stroke-linejoin="round"/><path style="stroke-width: 4px; stroke: transparent;" d="M 3040 3019 L 3040 2997  " fill="none" pointer-events="stroke"/></g><g id="arr_7vVGCeNm2NetawnncL6Ha"><marker id="arrowhead_arr_7vVGCeNm2NetawnncL6Ha" refX="1" refY="3" orient="auto" markerWidth="8" markerHeight="8"><path d="M2.91922181,1.64495663 L4.49787879,4.07365967 C4.64837316,4.30518948 4.58268096,4.61488128 4.35115115,4.76537565 C4.27004602,4.81809399 4.17538993,4.84615385 4.07865698,4.84615385 L0.921343022,4.84615385 C0.645200647,4.84615385 0.421343022,4.62229622 0.421343022,4.34615385 C0.421343022,4.24942089 0.44940288,4.1547648 0.502121214,4.07365967 L2.08077819,1.64495663 C2.23127257,1.41342682 2.54096436,1.34773462 2.77249418,1.498229 C2.83112579,1.53633954 2.88111126,1.58632502 2.91922181,1.64495663 Z" fill="hsl(0, 0%, 52.3%)" transform="translate(2.500000, 2.923077) rotate(90.000000) translate(-2.500000, -2.923077)"/></marker><path id="arr_7vVGCeNm2NetawnncL6Ha_path" style="stroke-width: 3px; stroke: rgb(133, 133, 133);" stroke-linecap="round" marker-end="url(#arrowhead_arr_7vVGCeNm2NetawnncL6Ha)" d="M 3456 3019 L 3456 2981  " fill="none" pointer-events="stroke" stroke-linejoin="round"/><path style="stroke-width: 4px; stroke: transparent;" d="M 3456 3019 L 3456 2981  " fill="none" pointer-events="stroke"/></g><g id="arr_831qhYMHCTz6hCFGNlBcG"><marker id="arrowhead_arr_831qhYMHCTz6hCFGNlBcG" refX="1" refY="3" orient="auto" markerWidth="8" markerHeight="8"><path d="M2.91922181,1.64495663 L4.49787879,4.07365967 C4.64837316,4.30518948 4.58268096,4.61488128 4.35115115,4.76537565 C4.27004602,4.81809399 4.17538993,4.84615385 4.07865698,4.84615385 L0.921343022,4.84615385 C0.645200647,4.84615385 0.421343022,4.62229622 0.421343022,4.34615385 C0.421343022,4.24942089 0.44940288,4.1547648 0.502121214,4.07365967 L2.08077819,1.64495663 C2.23127257,1.41342682 2.54096436,1.34773462 2.77249418,1.498229 C2.83112579,1.53633954 2.88111126,1.58632502 2.91922181,1.64495663 Z" fill="hsl(0, 0%, 52.3%)" transform="translate(2.500000, 2.923077) rotate(90.000000) translate(-2.500000, -2.923077)"/></marker><path id="arr_831qhYMHCTz6hCFGNlBcG_path" style="stroke-width: 3px; stroke: rgb(133, 133, 133);" stroke-linecap="round" marker-end="url(#arrowhead_arr_831qhYMHCTz6hCFGNlBcG)" d="M 2965 3056 L 2978 3056 C 2981 3056 2984 3053 2984 3050 L 2984 2942 C 2984 2939 2987 2936 2990 2936 L 2996 2936  " fill="none" pointer-events="stroke" stroke-linejoin="round"/><path style="stroke-width: 4px; stroke: transparent;" d="M 2965 3056 L 2978 3056 C 2981 3056 2984 3053 2984 3050 L 2984 2942 C 2984 2939 2987 2936 2990 2936 L 2996 2936  " fill="none" pointer-events="stroke"/></g><g id="arr_8jkOwlSYjQM2bDGrGu1eR"><marker id="arrowhead_arr_8jkOwlSYjQM2bDGrGu1eR" refX="1" refY="3" orient="auto" markerWidth="8" markerHeight="8"><path d="M2.91922181,1.64495663 L4.49787879,4.07365967 C4.64837316,4.30518948 4.58268096,4.61488128 4.35115115,4.76537565 C4.27004602,4.81809399 4.17538993,4.84615385 4.07865698,4.84615385 L0.921343022,4.84615385 C0.645200647,4.84615385 0.421343022,4.62229622 0.421343022,4.34615385 C0.421343022,4.24942089 0.44940288,4.1547648 0.502121214,4.07365967 L2.08077819,1.64495663 C2.23127257,1.41342682 2.54096436,1.34773462 2.77249418,1.498229 C2.83112579,1.53633954 2.88111126,1.58632502 2.91922181,1.64495663 Z" fill="hsl(0, 0%, 52.3%)" transform="translate(2.500000, 2.923077) rotate(90.000000) translate(-2.500000, -2.923077)"/></marker><path id="arr_8jkOwlSYjQM2bDGrGu1eR_path" style="stroke-width: 3px; stroke: rgb(133, 133, 133);" stroke-linecap="round" marker-end="url(#arrowhead_arr_8jkOwlSYjQM2bDGrGu1eR)" d="M 3152 3019 L 3152 2942 C 3152 2939 3149 2936 3146 2936 L 3084 2936  " fill="none" pointer-events="stroke" stroke-linejoin="round"/><path style="stroke-width: 4px; stroke: transparent;" d="M 3152 3019 L 3152 2942 C 3152 2939 3149 2936 3146 2936 L 3084 2936  " fill="none" pointer-events="stroke"/></g><g id="arr_9fXyGkLswJkf3eRF9jIKw"><marker id="arrowhead_arr_9fXyGkLswJkf3eRF9jIKw" refX="1" refY="3" orient="auto" markerWidth="8" markerHeight="8"><path d="M2.91922181,1.64495663 L4.49787879,4.07365967 C4.64837316,4.30518948 4.58268096,4.61488128 4.35115115,4.76537565 C4.27004602,4.81809399 4.17538993,4.84615385 4.07865698,4.84615385 L0.921343022,4.84615385 C0.645200647,4.84615385 0.421343022,4.62229622 0.421343022,4.34615385 C0.421343022,4.24942089 0.44940288,4.1547648 0.502121214,4.07365967 L2.08077819,1.64495663 C2.23127257,1.41342682 2.54096436,1.34773462 2.77249418,1.498229 C2.83112579,1.53633954 2.88111126,1.58632502 2.91922181,1.64495663 Z" fill="hsl(0, 0%, 52.3%)" transform="translate(2.500000, 2.923077) rotate(90.000000) translate(-2.500000, -2.923077)"/></marker><path id="arr_9fXyGkLswJkf3eRF9jIKw_path" style="stroke-width: 3px; stroke: rgb(133, 133, 133);" stroke-linecap="round" marker-end="url(#arrowhead_arr_9fXyGkLswJkf3eRF9jIKw)" d="M 3419 2904 L 3382 2904 C 3379 2904 3376 2901 3376 2898 L 3376 2782 C 3376 2779 3373 2776 3370 2776 L 3340 2776  " fill="none" pointer-events="stroke" stroke-linejoin="round"/><path style="stroke-width: 4px; stroke: transparent;" d="M 3419 2904 L 3382 2904 C 3379 2904 3376 2901 3376 2898 L 3376 2782 C 3376 2779 3373 2776 3370 2776 L 3340 2776  " fill="none" pointer-events="stroke"/></g><g id="arr_CIonvgiGdDGx4eegzMjHq"><marker id="arrowhead_arr_CIonvgiGdDGx4eegzMjHq" refX="1" refY="3" orient="auto" markerWidth="8" markerHeight="8"><path d="M2.91922181,1.64495663 L4.49787879,4.07365967 C4.64837316,4.30518948 4.58268096,4.61488128 4.35115115,4.76537565 C4.27004602,4.81809399 4.17538993,4.84615385 4.07865698,4.84615385 L0.921343022,4.84615385 C0.645200647,4.84615385 0.421343022,4.62229622 0.421343022,4.34615385 C0.421343022,4.24942089 0.44940288,4.1547648 0.502121214,4.07365967 L2.08077819,1.64495663 C2.23127257,1.41342682 2.54096436,1.34773462 2.77249418,1.498229 C2.83112579,1.53633954 2.88111126,1.58632502 2.91922181,1.64495663 Z" fill="hsl(0, 0%, 52.3%)" transform="translate(2.500000, 2.923077) rotate(90.000000) translate(-2.500000, -2.923077)"/></marker><marker id="arrowhead_src_arr_CIonvgiGdDGx4eegzMjHq" refX="4" refY="3" orient="auto" markerWidth="8" markerHeight="8"><path d="M2.91922181,1.64495663 L4.49787879,4.07365967 C4.64837316,4.30518948 4.58268096,4.61488128 4.35115115,4.76537565 C4.27004602,4.81809399 4.17538993,4.84615385 4.07865698,4.84615385 L0.921343022,4.84615385 C0.645200647,4.84615385 0.421343022,4.62229622 0.421343022,4.34615385 C0.421343022,4.24942089 0.44940288,4.1547648 0.502121214,4.07365967 L2.08077819,1.64495663 C2.23127257,1.41342682 2.54096436,1.34773462 2.77249418,1.498229 C2.83112579,1.53633954 2.88111126,1.58632502 2.91922181,1.64495663 Z" fill="hsl(0, 0%, 52.3%)" transform="translate(2.500000, 2.923077) rotate(270.000000) translate(-2.500000, -2.923077)"/></marker><path id="arr_CIonvgiGdDGx4eegzMjHq_path" style="stroke-width: 3px; stroke: rgb(133, 133, 133);" stroke-linecap="round" marker-start="url(#arrowhead_src_arr_CIonvgiGdDGx4eegzMjHq)" marker-end="url(#arrowhead_arr_CIonvgiGdDGx4eegzMjHq)" d="M 3684 2912 L 3500 2912  " fill="none" pointer-events="stroke" stroke-linejoin="round" stroke-dasharray="6,6"/><path style="stroke-width: 4px; stroke: transparent;" d="M 3684 2912 L 3500 2912  " fill="none" pointer-events="stroke"/></g><g id="arr_FmtmrJQQ3FfHm5aiUKCBa"><marker id="arrowhead_arr_FmtmrJQQ3FfHm5aiUKCBa" refX="1" refY="3" orient="auto" markerWidth="8" markerHeight="8"><path d="M2.91922181,1.64495663 L4.49787879,4.07365967 C4.64837316,4.30518948 4.58268096,4.61488128 4.35115115,4.76537565 C4.27004602,4.81809399 4.17538993,4.84615385 4.07865698,4.84615385 L0.921343022,4.84615385 C0.645200647,4.84615385 0.421343022,4.62229622 0.421343022,4.34615385 C0.421343022,4.24942089 0.44940288,4.1547648 0.502121214,4.07365967 L2.08077819,1.64495663 C2.23127257,1.41342682 2.54096436,1.34773462 2.77249418,1.498229 C2.83112579,1.53633954 2.88111126,1.58632502 2.91922181,1.64495663 Z" fill="hsl(0, 0%, 52.3%)" transform="translate(2.500000, 2.923077) rotate(90.000000) translate(-2.500000, -2.923077)"/></marker><marker id="arrowhead_src_arr_FmtmrJQQ3FfHm5aiUKCBa" refX="4" refY="3" orient="auto" markerWidth="8" markerHeight="8"><path d="M2.91922181,1.64495663 L4.49787879,4.07365967 C4.64837316,4.30518948 4.58268096,4.61488128 4.35115115,4.76537565 C4.27004602,4.81809399 4.17538993,4.84615385 4.07865698,4.84615385 L0.921343022,4.84615385 C0.645200647,4.84615385 0.421343022,4.62229622 0.421343022,4.34615385 C0.421343022,4.24942089 0.44940288,4.1547648 0.502121214,4.07365967 L2.08077819,1.64495663 C2.23127257,1.41342682 2.54096436,1.34773462 2.77249418,1.498229 C2.83112579,1.53633954 2.88111126,1.58632502 2.91922181,1.64495663 Z" fill="hsl(0, 0%, 52.3%)" transform="translate(2.500000, 2.923077) rotate(270.000000) translate(-2.500000, -2.923077)"/></marker><path id="arr_FmtmrJQQ3FfHm5aiUKCBa_path" style="stroke-width: 3px; stroke: rgb(133, 133, 133);" stroke-linecap="round" marker-start="url(#arrowhead_src_arr_FmtmrJQQ3FfHm5aiUKCBa)" marker-end="url(#arrowhead_arr_FmtmrJQQ3FfHm5aiUKCBa)" d="M 3728 2868 L 3728 2774 C 3728 2771 3725 2768 3722 2768 L 3500 2768  " fill="none" pointer-events="stroke" stroke-linejoin="round" stroke-dasharray="6,6"/><path style="stroke-width: 4px; stroke: transparent;" d="M 3728 2868 L 3728 2774 C 3728 2771 3725 2768 3722 2768 L 3500 2768  " fill="none" pointer-events="stroke"/></g><g id="arr_YraFzzq6SrxSv6mU5MC5H"><marker id="arrowhead_arr_YraFzzq6SrxSv6mU5MC5H" refX="1" refY="3" orient="auto" markerWidth="8" markerHeight="8"><path d="M2.91922181,1.64495663 L4.49787879,4.07365967 C4.64837316,4.30518948 4.58268096,4.61488128 4.35115115,4.76537565 C4.27004602,4.81809399 4.17538993,4.84615385 4.07865698,4.84615385 L0.921343022,4.84615385 C0.645200647,4.84615385 0.421343022,4.62229622 0.421343022,4.34615385 C0.421343022,4.24942089 0.44940288,4.1547648 0.502121214,4.07365967 L2.08077819,1.64495663 C2.23127257,1.41342682 2.54096436,1.34773462 2.77249418,1.498229 C2.83112579,1.53633954 2.88111126,1.58632502 2.91922181,1.64495663 Z" fill="hsl(0, 0%, 52.3%)" transform="translate(2.500000, 2.923077) rotate(90.000000) translate(-2.500000, -2.923077)"/></marker><path id="arr_YraFzzq6SrxSv6mU5MC5H_path" style="stroke-width: 3px; stroke: rgb(133, 133, 133);" stroke-linecap="round" marker-end="url(#arrowhead_arr_YraFzzq6SrxSv6mU5MC5H)" d="M 3456 2830 L 3456 2868  " fill="none" pointer-events="stroke" stroke-linejoin="round"/><path style="stroke-width: 4px; stroke: transparent;" d="M 3456 2830 L 3456 2868  " fill="none" pointer-events="stroke"/></g><g id="arr_nKTAluR8FvFVZlYDdjeCg"><marker id="arrowhead_arr_nKTAluR8FvFVZlYDdjeCg" refX="1" refY="3" orient="auto" markerWidth="8" markerHeight="8"><path d="M2.91922181,1.64495663 L4.49787879,4.07365967 C4.64837316,4.30518948 4.58268096,4.61488128 4.35115115,4.76537565 C4.27004602,4.81809399 4.17538993,4.84615385 4.07865698,4.84615385 L0.921343022,4.84615385 C0.645200647,4.84615385 0.421343022,4.62229622 0.421343022,4.34615385 C0.421343022,4.24942089 0.44940288,4.1547648 0.502121214,4.07365967 L2.08077819,1.64495663 C2.23127257,1.41342682 2.54096436,1.34773462 2.77249418,1.498229 C2.83112579,1.53633954 2.88111126,1.58632502 2.91922181,1.64495663 Z" fill="hsl(0, 0%, 52.3%)" transform="translate(2.500000, 2.923077) rotate(90.000000) translate(-2.500000, -2.923077)"/></marker><path id="arr_nKTAluR8FvFVZlYDdjeCg_path" style="stroke-width: 3px; stroke: rgb(133, 133, 133);" stroke-linecap="round" marker-end="url(#arrowhead_arr_nKTAluR8FvFVZlYDdjeCg)" d="M 3083 2776 L 3046 2776 C 3043 2776 3040 2779 3040 2782 L 3040 2884  " fill="none" pointer-events="stroke" stroke-linejoin="round"/><path style="stroke-width: 4px; stroke: transparent;" d="M 3083 2776 L 3046 2776 C 3043 2776 3040 2779 3040 2782 L 3040 2884  " fill="none" pointer-events="stroke"/></g><g id="arr_z5SZmGtqIapxzpjHMHymT"><marker id="arrowhead_arr_z5SZmGtqIapxzpjHMHymT" refX="1" refY="3" orient="auto" markerWidth="8" markerHeight="8"><path d="M2.91922181,1.64495663 L4.49787879,4.07365967 C4.64837316,4.30518948 4.58268096,4.61488128 4.35115115,4.76537565 C4.27004602,4.81809399 4.17538993,4.84615385 4.07865698,4.84615385 L0.921343022,4.84615385 C0.645200647,4.84615385 0.421343022,4.62229622 0.421343022,4.34615385 C0.421343022,4.24942089 0.44940288,4.1547648 0.502121214,4.07365967 L2.08077819,1.64495663 C2.23127257,1.41342682 2.54096436,1.34773462 2.77249418,1.498229 C2.83112579,1.53633954 2.88111126,1.58632502 2.91922181,1.64495663 Z" fill="hsl(0, 0%, 52.3%)" transform="translate(2.500000, 2.923077) rotate(90.000000) translate(-2.500000, -2.923077)"/></marker><path id="arr_z5SZmGtqIapxzpjHMHymT_path" style="stroke-width: 3px; stroke: rgb(133, 133, 133);" stroke-linecap="round" marker-end="url(#arrowhead_arr_z5SZmGtqIapxzpjHMHymT)" d="M 3264 3019 L 3264 2926 C 3264 2923 3261 2920 3258 2920 L 3084 2920  " fill="none" pointer-events="stroke" stroke-linejoin="round"/><path style="stroke-width: 4px; stroke: transparent;" d="M 3264 3019 L 3264 2926 C 3264 2923 3261 2920 3258 2920 L 3084 2920  " fill="none" pointer-events="stroke"/></g></g></g><g transform="translate(3710,3181 )"><svg width="136" height="39" viewBox="0 0 136 39" fill="none" xmlns="http://www.w3.org/2000/svg"></svg></g></svg>