<?xml version="1.0" encoding="UTF-8"?>
<!-- Generator: Adobe Illustrator 26.4.1, SVG Export Plug-In . SVG Version: 6.00 Build 0)  -->
<svg version="1.1" id="Group_10" xmlns="http://www.w3.org/2000/svg" xmlns:xlink="http://www.w3.org/1999/xlink" x="0px" y="0px" viewBox="0 0 110.3 23.9" style="enable-background:new 0 0 110.3 23.9;" xml:space="preserve">
<style type="text/css">
	.st0{clip-path:url(#SVGID_00000181079189660042309820000003147350487358646439_);}
	.st1{fill:#082943;}
	.st2{fill:#50FA0C;}
	.st3{fill:#00A2FF;}
</style>
<g>
	<defs>
		<rect id="SVGID_1_" x="0.5" y="0.7" width="108.7" height="22.4"/>
	</defs>
	<clipPath id="SVGID_00000183208933968559617860000003684914970461330599_">
		<use xlink:href="#SVGID_1_" style="overflow:visible;"/>
	</clipPath>
	<g id="Group_1" style="clip-path:url(#SVGID_00000183208933968559617860000003684914970461330599_);">
		<path id="Path_1" class="st1" d="M85,6.2c-0.8,0-1.5,0.7-1.5,1.5c0,0.8,0.6,1.5,1.4,1.5c0.8,0,1.5-0.6,1.5-1.4c0,0,0-0.1,0-0.1    C86.4,6.9,85.8,6.2,85,6.2"/>
		<path id="Path_2" class="st1" d="M83.8,17v4.9c0,0.6,0.5,1.2,1.1,1.2c0.6,0,1.2-0.5,1.2-1.1c0,0,0,0,0-0.1V11.7    c0-0.6-0.5-1.2-1.1-1.2s-1.2,0.5-1.2,1.1c0,0,0,0,0,0.1V17z"/>
		<path id="Path_3" class="st1" d="M95.5,9.2c-3.8,0-6.9,3.1-6.9,6.9c0,0,0,0,0,0c0,0.3,0,0.5,0,0.8c0.4,3.8,3.9,6.6,7.7,6.1    c3.2-0.4,5.8-2.9,6.1-6.1c0-0.3,0-0.5,0-0.8C102.4,12.3,99.3,9.2,95.5,9.2C95.5,9.2,95.5,9.2,95.5,9.2 M100,16.9    c-0.4,2.5-2.8,4.2-5.3,3.8c-1.9-0.3-3.5-1.8-3.8-3.8c-0.4-2.5,1.3-4.9,3.8-5.3c2.5-0.4,4.9,1.3,5.3,3.8c0,0.2,0.1,0.5,0.1,0.7    C100.1,16.4,100.1,16.6,100,16.9"/>
		<path id="Path_4" class="st1" d="M69.6,9.2c-3.8,0-6.9,3-7,6.8c0,0,0,0.1,0,0.1c0,0.3,0,0.5,0,0.8c0.4,3.8,3.9,6.6,7.7,6.1    c1.4-0.2,2.8-0.8,3.8-1.7v0.6c0,0.6,0.5,1.2,1.1,1.2c0.6,0,1.2-0.5,1.2-1.1c0,0,0,0,0-0.1v-6.5C76.1,11.9,73.1,9.2,69.6,9.2     M74.1,16.9c-0.4,2.5-2.8,4.2-5.3,3.7c-1.9-0.3-3.4-1.8-3.7-3.7c0-0.3-0.1-0.5-0.1-0.8c0-2.5,2.1-4.6,4.7-4.5c2.5,0,4.5,2,4.5,4.5    C74.1,16.4,74.1,16.6,74.1,16.9"/>
		<path id="Path_5" class="st1" d="M80.1,23L80.1,23c0.7,0,1.2-0.6,1.2-1.2c0,0,0,0,0,0V7.4c0-0.7-0.6-1.2-1.2-1.2s-1.2,0.6-1.2,1.2    l0,0v14.4C78.9,22.5,79.4,23,80.1,23L80.1,23"/>
		<path id="Path_6" class="st1" d="M108.2,8.7h-0.8V7.4c0-0.7-0.6-1.2-1.2-1.2c-0.7,0-1.2,0.6-1.2,1.2l0,0v1.3h-0.8    c-0.6,0-1.1,0.5-1.1,1.1c0,0.6,0.5,1.1,1.1,1.1h0.8v10.9c0,0.7,0.6,1.2,1.2,1.2c0.7,0,1.2-0.6,1.2-1.2V10.9h0.8    c0.6,0,1.1-0.5,1.1-1.1C109.3,9.2,108.8,8.7,108.2,8.7"/>
		<path id="Path_7" class="st2" d="M43.3,20.4L36.7,2c-0.4-1-1.5-1.5-2.5-1.2c-1,0.4-1.5,1.5-1.2,2.5l0,0l6.6,18.5    c0.4,1,1.5,1.6,2.5,1.2S43.7,21.5,43.3,20.4L43.3,20.4"/>
		<path id="Path_8" class="st3" d="M26,1.7c-2.5-1.7-5.9-1-7.6,1.5c-0.3,0.4-0.5,0.8-0.6,1.2l-2.6,7.4l-0.5,1.3c0,0-1.5,4.3-1.6,4.4    c-0.2,0.7-0.9,1.1-1.7,1.1c-0.7,0-1.3-0.4-1.6-1.1c-0.1-0.1-1.6-4.4-1.6-4.4L4.4,2C4,1,2.9,0.4,1.8,0.8S0.3,2.3,0.7,3.3    c0,0,0,0,0,0l3.5,9.8l2.2,6.1c0.8,2.2,2.8,3.7,5.2,3.7c2.4,0.1,4.5-1.4,5.2-3.6l2-5.8l1-2.9l1.8-5.1C22.2,3.4,23.9,1.9,26,1.7"/>
		<path id="Path_9" class="st2" d="M33.8,20.4L28.4,5.1c-0.4-1-1.5-1.5-2.5-1.2s-1.5,1.5-1.2,2.5l5.4,15.3c0.4,1,1.5,1.6,2.5,1.2    C33.7,22.6,34.2,21.5,33.8,20.4"/>
		<path id="Path_10" class="st1" d="M60.6,9.6c-0.5,0-0.9,0.3-1.1,0.8c0,0-3.3,9.3-3.3,9.4c-0.1,0.4-0.6,0.7-1,0.7    c-0.4,0-0.8-0.3-0.9-0.7c0-0.1-1-2.7-1-2.7l-2.4-6.7c-0.2-0.6-0.9-0.9-1.5-0.7c-0.6,0.2-0.9,0.9-0.7,1.5l2.1,5.9l1.3,3.7    c0.5,1.3,1.7,2.2,3.1,2.3c1.4,0.1,2.7-0.8,3.1-2.2l3.4-9.7c0.2-0.6-0.1-1.3-0.7-1.5C60.9,9.6,60.8,9.6,60.6,9.6"/>
	</g>
</g>
</svg>